<svg id="logo" xmlns="http://www.w3.org/2000/svg" viewBox="0 0 495.55 495.55"><defs><style>.cls-1{fill:#fefefe;}</style></defs><path id="path4" class="cls-1" d="M426.07,411.52a8,8,0,0,1-11.6,0,7.62,7.62,0,0,1-2.32-5.8,8.29,8.29,0,0,1,2.32-5.8,7.6,7.6,0,0,1,5.8-2.32,8.29,8.29,0,0,1,5.8,2.32,7.8,7.8,0,0,1,2.48,5.8A8.07,8.07,0,0,1,426.07,411.52ZM415.3,400.75a7.2,7.2,0,0,0,0,9.94,6.89,6.89,0,0,0,5,2.15,6.3,6.3,0,0,0,5-2.15,7,7,0,0,0-5-11.93A6,6,0,0,0,415.3,400.75Zm5,.33a7.87,7.87,0,0,1,2.48.33c1,.33,1.33,1.16,1.33,2.32a2.35,2.35,0,0,1-.83,1.82,11.18,11.18,0,0,1-1.33.5,2.22,2.22,0,0,1,1.5.83,2.6,2.6,0,0,1,.49,1.32v2h-1.49V409a2.26,2.26,0,0,0-.83-2,4.51,4.51,0,0,0-1.82-.33h-1.16v3.48H417v-8.95h3.32Zm1.65,1.49a4.66,4.66,0,0,0-2-.33h-1.33v3.15h1.49a3.59,3.59,0,0,0,1.49-.17,1.25,1.25,0,0,0,1-1.32,1.7,1.7,0,0,0-.67-1.33Z"/><path id="path6" class="cls-1" d="M392.48,47.45H108.16c-42.83,0-77.73,33.89-77.73,75.29V375.41c0,42,33.69,75.09,76.91,75.09H391.87c43.23,0,76.92-33.08,76.92-75.09V122.74c0-42.21-33.49-75.29-76.31-75.29m67.58,328c0,37.34-30,66.37-68.39,66.37H107.34c-38.35.2-68.19-29-68.19-66.37V122.74c0-37.34,30.24-66.76,69-66.76H392.68c38,0,67.59,29.22,67.59,66.76V375.41Z"/><path id="path12" class="cls-1" d="M406.89,287.33h-55l-8.72-54.79L311.1,286.93H305c-3.65-6.29-5.07-15.43-5.07-21.11,0-9.33.61-18.47.61-30.44,0-15.83-4.67-24.15-17.05-27.2v-.4c26.18-3.65,38.15-21.11,38.15-45.46,0-34.7-23.13-42.21-53.37-42.21H186.9L152.4,283.27h43.22l12.59-59.46H237c15.42,0,21.71,7.51,21.71,21.92,0,11-1.22,19.69-1.22,28,0,3,.61,10.35,2.84,13.19L291.62,320l-27,57.84,57.63-34.3,43,33.08L357.37,322l49.52-34.71ZM250,193.37h-34.5L223.83,154H255.9c11.36,0,23.34,3,23.34,16.84,0,17.66-13.6,22.53-29.23,22.53M323.07,334,282.89,358l18.47-39.37L279,295.05h36.73l23.13-39.17,6.3,39.57h36.53l-32.88,22.93,5.88,40.19L323.07,334Z"/></svg>