<svg id="logo" xmlns="http://www.w3.org/2000/svg" viewBox="0 0 495.55 495.55"><defs><style>.cls-1{fill:#fefefe;}</style></defs><polygon class="cls-1" points="414.2 225.37 396.68 225.37 403.57 235.26 412.45 235.26 404.98 277.79 420.55 277.79 428.03 235.26 447.44 235.26 416.8 210.6 414.2 225.37"/><polygon class="cls-1" points="109.99 201.22 39.27 201.22 37.34 212.36 64.8 212.36 53.3 277.8 68.86 277.8 80.37 212.36 108.06 212.36 109.99 201.22"/><path class="cls-1" d="M121.5,224.19c-19.78,0-32.45,12.45-35,26.92-2.79,16.06,7.08,27.82,27.05,27.82,8.92,0,17.26-1.68,24-5.45l2.1-12a39.89,39.89,0,0,1-22.2,7.4c-10,0-17.86-4.14-16.62-13.65h41.13a25.8,25.8,0,0,0,1.52-5.57c2-11.48-2.07-25.49-22.07-25.49M129.57,246H102.5c1.63-5.36,6.88-12.78,16.46-12.78,10.42,0,11.52,7.92,10.61,12.78"/><path class="cls-1" d="M190.24,224.19c-9.71,0-17,4-20.42,8.1h-.36l-13.71-8.1c-.5,4.55-1.17,10.72-2.23,16.77l-6.39,36.83h15.56L168.1,247a12.6,12.6,0,0,1,1.45-4.21A15.64,15.64,0,0,1,182.94,235c8.49,0,10.8,5.73,9.5,13.25l-5.21,29.57H202.8l5.48-31.13c2.88-16.58-7.32-22.47-18-22.47"/><path class="cls-1" d="M377,224.19c-9.72,0-17,4-20.42,8.1h-.36l-13.71-8.1c-.5,4.55-1.18,10.72-2.23,16.77l-6.39,36.83h15.56L354.82,247a12.82,12.82,0,0,1,1.44-4.21A15.67,15.67,0,0,1,369.65,235c8.5,0,10.81,5.73,9.51,13.25L374,277.79h15.56L395,246.66c2.88-16.58-7.31-22.47-18-22.47"/><path class="cls-1" d="M308.22,224.19c-19.79,0-32.45,12.45-35,26.92-2.79,16.06,7.08,27.82,27,27.82,8.92,0,17.27-1.68,24.05-5.45l2.11-12a39.89,39.89,0,0,1-22.2,7.4c-9.95,0-17.85-4.14-16.62-13.65h41.14a27,27,0,0,0,1.52-5.57c2-11.48-2.09-25.49-22.08-25.49M316.28,246H289.22c1.62-5.36,6.88-12.78,16.45-12.78,10.43,0,11.53,7.92,10.61,12.78"/><path class="cls-1" d="M214.81,250.88c-2.82,16.27,8.57,28.05,27.85,28.05a70.2,70.2,0,0,0,20.3-3.5l2.51-14c-5.4,5.82-12.74,7-17.94,7-10.59,0-18.61-6.17-16.74-16.92,1.61-9.61,10.72-17,22.58-17,4.83,0,11.39,1.62,15.52,7.06l2.41-14.25a43.94,43.94,0,0,0-16.63-3.12c-21.64,0-37.13,11-39.86,26.66"/></svg>