<svg id="logo" xmlns="http://www.w3.org/2000/svg" viewBox="0 0 495.55 495.55"><defs><style>.cls-1{fill:#fefefe;}.cls-1,.cls-2{fill-rule:evenodd;}</style></defs><path id="path24" class="cls-1" d="M362.34,74.76H120.21c-19.62,0-26.86,7.25-26.86,26.88V338.56c0,2.22.09,4.28.28,6.2.45,4.28.53,8.44,4.52,13.16.39.47,4.46,3.5,4.46,3.5,2.19,1.07,3.68,1.86,6.15,2.85l119.23,50c6.19,2.84,8.77,3.95,13.27,3.86h0c4.5.09,7.09-1,13.28-3.86l119.22-50c2.47-1,4-1.78,6.16-2.85,0,0,4.07-3,4.45-3.5,4-4.72,4.07-8.88,4.52-13.16a60,60,0,0,0,.29-6.2V101.64c0-19.63-7.25-26.88-26.87-26.88"/><path id="path28" d="M346.12,313l-.05.55-.06.6-.11.55-.16.54-.11.5-.16.54-.22.49-.22.44-.21.49-.28.44-.27.44L344,319l-.28.43-.32.38-.38.39-.33.33-.44.38-.38.33-.43.32-.44.27-.43.33-.49.27-.49.22-.49.28-.55.22-.54.21-.54.17-.55.16-.49.17-.54.11-.49.1-.49.11-.54.11-.55.06-.49.05-.54.06-.6.05-.54.06h-2.29l-.54-.06h-.6l-.54-.05-.55-.06-.6-.05-.54-.11-.55-.06-.54-.11-.55-.1-.54-.11-.54-.11-.55-.17-.49-.11-.54-.16-.54-.16-.49-.22-.55-.17-.49-.16-.54-.22-.49-.22-.49-.22-.49-.27-.49-.22-.49-.27-.43-.27-.5-.28-.43-.27-.44-.27-.43-.33-.43-.33-.44-.33-.44-.32-.38-.33-.43-.38.33-.44.37-.38.33-.44.38-.44L314,316l.32-.44.39-.43.32-.39.38-.43.33-.39.38-.43.33-.44.32-.38.38-.44.33-.44.38-.38.33-.44.43.33.49.33.44.33.49.32.43.28.49.32.44.28.49.22.43.27.49.22.49.22.49.22.49.16.49.22.55.16.54.17.49.16.54.11.55.11.54.11.6,0,.54.11h.55l.6.06h1.19l.6-.06.55-.11.48-.11.49-.11.44-.16.38-.22.44-.33.32-.38.22-.44.16-.49.06-.54v-.11l-.06-.66-.21-.55L335,311l-.38-.33-.43-.32-.44-.22-.49-.22-.54-.22-.66-.27-.38-.11-.43-.11-.49-.17-.49-.11-.54-.16-.55-.11-.6-.16-.54-.11-.6-.17-.54-.1-.55-.17-.54-.11-.54-.16-.5-.17-.54-.11-.49-.16-.49-.16-.49-.17-.6-.22-.54-.21-.54-.22-.55-.22-.49-.28-.54-.27-.44-.27-.49-.27-.43-.33-.44-.28-.38-.32-.38-.39-.38-.38-.33-.38-.32-.38-.28-.39-.27-.43-.27-.5-.22-.37-.16-.44-.16-.49-.17-.44-.11-.55-.1-.49-.06-.55-.05-.54-.06-.6v-1.26l.06-.55.05-.49.06-.55.1-.49.11-.49.17-.49.11-.49.21-.49.22-.5.22-.49.27-.49.27-.49.33-.44.33-.44.38-.43.38-.39.38-.43.43-.39.38-.27.44-.33.43-.32.44-.28.49-.27.49-.22.49-.27.49-.22.54-.17.55-.21.49-.17.43-.11.49-.11.49-.11.55-.1.48-.11.55-.06.54-.05.55-.06.54-.05h2.34l.6.05.6.06H332l.6.05.54.11.6.06.55.1.49.11.54.11.54.11.49.11.55.17.49.16.49.11.54.22.49.16.49.22.49.22.54.22.49.27.44.22.49.27.49.28.43.27.49.33.44.27.43.33.44.33.43.32-.32.44-.28.44-.32.44-.33.43-.32.49-.28.44-.32.44-.33.44-.27.43-.33.44-.32.44-.28.43-.32.5-.33.43-.32.44-.28.44-.32.43-.44-.32-.49-.28-.43-.27L338,295l-.49-.22-.44-.27-.48-.22-.44-.22-.49-.22-.43-.21-.49-.17-.44-.22-.6-.16-.54-.16-.54-.17-.55-.11-.54-.11-.55-.11-.54,0-.55-.06-.49-.05h-1.19l-.6.11-.55.11-.48.11-.44.22-.38.22-.49.43-.33.49-.21.5-.06.54v.11l.06.71.27.6.22.33.38.38.49.28.43.27.54.22.61.22.65.22.43.11.44.16.49.11.49.16.54.11.6.17.6.16.6.16.59.11.55.17.6.16.54.11.55.16.54.17.49.16.54.17.49.16.49.16.6.22.55.27.54.22.54.27.49.28.49.27.44.27.43.33.44.28.43.38.44.38.38.44.38.38.33.44.32.49.27.44.28.49.22.44.16.49.16.49.11.49.11.55.11.54.05.55.06.6v1.31ZM308,323.88H276.79V284.1h31.45v9H287.18v6.5h18.94v8.47H287.18v6.78h21.33v9Zm-39.75,0h-10V300.36l-.27.44-.33.49-.27.44-.32.44-.28.49-.33.44-.27.43-.27.5-.32.43-.28.44-.32.44-.27.49-.33.44-.27.44-.28.49-.32.44-.27.44-.33.49-.27.44-.33.43-.27.5-.27.44-.33.43-.27.5-.33.44-.27.43-.33.44-.27.49-.27.44-.33.44-.27.49-.33.44-.27.44-.32.49-.28.44h-.21l-.33-.49-.27-.44-.33-.5-.27-.43-.33-.5-.27-.44-.32-.49-.28-.44-.33-.49-.27-.43-.32-.5-.27-.44-.33-.49-.27-.44-.33-.49-.27-.44-.33-.49-.32-.44-.28-.49-.32-.44-.28-.49-.32-.44-.27-.49-.33-.44-.27-.49-.33-.44-.27-.49-.33-.44-.27-.49-.33-.44-.27-.49-.32-.44-.28-.49-.32-.44v23.41H227.14V284.1H238.3l.27.44.27.49.32.44.28.49.27.43.27.5.27.43.33.49.27.44.27.44.27.49.28.43.32.49.28.44.27.49.27.44.33.43.27.49.27.44.27.49.27.44.33.49.27.44.27.49.28.43.27.44.33.49.27.44.27.49.27.43.27.5.33.43.27.49.27.44.28-.44.27-.49.32-.43.28-.5.27-.43.27-.49.33-.44.27-.49.27-.44.27-.43.33-.49.27-.44.27-.49.28-.44.32-.49.27-.44.28-.49.27-.43.27-.44.33-.49.27-.44.27-.49.27-.43.33-.49.27-.44.27-.44.28-.49.32-.43.27-.5.27-.43.28-.49.33-.44.27-.49.27-.44h11.15v39.78Zm-63.13-16.39-.16-.5-.22-.54-.22-.49-.16-.5-.22-.49-.21-.55-.17-.49-.22-.49-.21-.5-.17-.49-.21-.55-.17-.49-.21-.49-.22-.5-.17-.49-.21-.55-.22-.49-.16-.49-.22-.5-.22-.54-.16-.5-.22-.49-.22.49-.16.5-.22.54-.22.5-.16.49-.22.49-.22.55-.21.49-.16.5-.22.49-.22.49-.16.55-.22.49-.22.5-.16.49-.22.49-.22.55-.22.49-.16.5-.22.49-.21.54-.17.5-.21.49h9.19Zm17.09,16.39H211.51l-.21-.49-.17-.49-.22-.5-.22-.54-.16-.49-.21-.49-.22-.49-.16-.5-.22-.49-.22-.49-.16-.49-.22-.55-.22-.49-.16-.49-.22-.49H192.91l-.22.49-.16.49-.22.49-.22.55-.16.49-.22.49-.22.49-.16.5-.22.49-.22.49-.16.49-.22.54-.22.5-.16.49-.22.49h-11l.22-.49.22-.49.22-.5.21-.54.17-.49.22-.49.21-.49.22-.5.22-.49.22-.54.21-.5.22-.49.16-.49.22-.49.22-.49.22-.55.22-.49.21-.49.22-.5.22-.49.16-.49.22-.55.22-.49.21-.49.22-.49.22-.49.22-.49.21-.55.17-.49.22-.49.21-.5.22-.49.22-.49.22-.55.21-.49.22-.49.16-.49.22-.49.22-.5.22-.54.22-.49.21-.5.22-.49.22-.49.16-.49.22-.49.22-.55.21-.49.22-.49.22-.49.22-.49.21-.5.17-.54.22-.49.21-.5.22-.49.22-.49.22-.49.21-.55.22-.49.16-.49.22-.49.22-.5.22-.49.22-.54.21-.5.22-.49.22-.49.16-.49.22-.49.22-.55.21-.49.22-.49.22-.49.22-.5.21-.49.17-.54.21-.5.22-.49.22-.49h10.06l.22.49.22.49.22.5.21.54.17.49.21.5.22.49.22.49.22.49.22.55.21.49.22.49.16.49.22.49.22.5.22.54.21.49.22.5.22.49.22.49.16.49.22.55.21.49.22.49.22.49.22.5.22.49.21.54.17.5.21.49.22.49.22.49.22.49.22.55.21.49.22.49.16.49.22.49.22.5.22.49.21.54.22.5.22.49.22.49.16.49.22.49.21.55.22.49.22.49.22.5.22.49.21.49.17.55.21.49.22.49.22.49.22.49.21.49.22.55.22.49.16.49.22.5.22.49.22.49.21.55.22.49.22.49.22.49.16.49.22.5.21.54.22.49.22.5.22.49.22.49.21.49.17.54.21.5.22.49.22.49Zm-47.67-5.08-.43.33-.38.27-.44.33-.43.27-.44.33-.43.27-.44.28-.49.27-.49.27-.49.28-.49.21-.49.28-.54.21-.49.22-.55.22-.48.22-.49.16-.5.17-.48.16-.55.17-.49.16L164,324l-.49.11-.54.11-.55.11-.54.05-.6.06-.54.05-.6.06-.55,0-.6.06h-2.34l-.54-.06-.6,0-.54-.06-.54-.05-.55-.06-.54-.11-.55-.11-.49-.11-.54-.1-.49-.17-.54-.11-.5-.16-.49-.22-.48-.16-.55-.22-.49-.22-.49-.22-.49-.22-.49-.27-.43-.27-.49-.28-.44-.27-.43-.27-.44-.33-.43-.33-.44-.33-.38-.32-.38-.33-.38-.38-.38-.33-.38-.38-.38-.39-.33-.38-.33-.44-.32-.38-.28-.44-.32-.43-.27-.44-.27-.44-.28-.49-.27-.44-.22-.49-.21-.49-.22-.49-.22-.49-.16-.44-.22-.49-.11-.5-.16-.49-.11-.54-.16-.5-.11-.54-.06-.49-.11-.55-.05-.49-.06-.55,0-.55-.05-.54v-1.8l.05-.61v-.54l0-.55.06-.6.11-.54,0-.55.11-.49L137,299l.11-.54.16-.5.17-.54.16-.49.22-.55.22-.49.22-.49.21-.5.22-.49.27-.49.28-.44.27-.43.27-.44.27-.44.33-.44.32-.43.33-.44.33-.38.38-.39.32-.38.38-.38.39-.38.38-.33.43-.38.38-.33.44-.33.43-.27.44-.33.43-.27.44-.28.49-.27.49-.27.49-.28.49-.22.49-.21.54-.28.44-.16.54-.17.49-.21.49-.11.49-.17.54-.11.49-.16.55-.11.54-.05.55-.11.54-.06.54-.05.55-.06.54-.05h2.34l.6.05.6.06h.54l.54.05.6.11.49.06.55.11.54.1.49.11.49.11.49.11.49.17.49.11.43.16.5.16.48.22.49.22.5.22.48.27.49.22.44.27.49.28.43.27.49.27.44.33.43.28.44.32.43.33.44.38.43.33-.32.44-.38.38-.33.44-.38.44-.33.43-.32.39-.39.43-.32.44-.33.38-.38.44-.32.44-.38.43-.33.39-.33.43-.38.44-.32.44-.39.38-.32.44-.44-.33-.43-.38-.44-.28-.43-.32-.44-.28-.43-.27-.44-.27-.49-.28-.43-.22-.44-.21-.44-.17-.48-.16-.49-.17-.49-.11-.55-.1-.54-.11-.54-.06-.6,0-.6-.06H157l-.55.06-.49,0-.54.11-.49.11-.49.16-.49.17-.49.22-.49.21-.44.28-.43.27-.44.28-.38.32-.38.33-.38.33-.33.38-.38.38-.32.44-.27.38-.28.44-.27.49-.27.44-.22.49-.16.49-.22.5-.16.54-.11.54-.11.5-.11.6-.05.54-.06.55v1.26l.06.54.05.5.05.54.11.49.11.5.11.49.17.49.16.44.22.54.21.5.27.49.28.43.27.44.33.44.32.38.38.38.33.39.38.32.44.33.43.33.43.27.44.28.49.21.49.22.49.22.54.17.55.16.54.11.55.11.54.05.6.06h1.25l.6-.06.6-.05.54-.06.54-.11.55-.1.54-.17.49-.11.49-.22.44-.22.49-.21.38-.22.43-.28v-5h-7.94v-8h17.95v17.75Z"/><path id="path32" d="M157,194.1H180.6V175.86H157V138.63h24.52V120.39H137V252h44.92V233.78H157Z"/><path id="path36" d="M325.91,198.05v29.71c0,5.27-2.43,7.71-7.48,7.71h-3.75c-5.24,0-7.67-2.44-7.67-7.71V144.64c0-5.26,2.43-7.7,7.67-7.7h3.37c5.05,0,7.49,2.44,7.49,7.7v25.77h19.64V143.52c0-16.36-7.86-24.26-24.13-24.26h-9.74c-16.28,0-24.33,8.08-24.33,24.45v85c0,16.37,8,24.45,24.33,24.45h9.92c16.28,0,24.33-8.08,24.33-24.45V198.05Z"/><path id="path38" d="M256.37,252h20V120.39h-20Z"/><path id="path42" d="M227.32,178.87c0,5.27-2.43,7.71-7.49,7.71H211.6V138.06h8.23c5.06,0,7.49,2.45,7.49,7.71ZM223,120.39H191.57V252h20V204.26H223c16.29,0,24.33-8.09,24.33-24.45v-35c0-16.36-8-24.44-24.33-24.44"/><path id="path46" class="cls-2" d="M184.23,371H298.86l-58.51,19.3Z"/></svg>