<svg id="logo" xmlns="http://www.w3.org/2000/svg" viewBox="0 0 495.55 495.55"><defs><style>.cls-1{fill:#fefefe;}</style></defs><g id="g4192"><path id="path47" class="cls-1" d="M182.81,232.38h17v64.74h-17Z"/><path id="path49" class="cls-1" d="M431.14,269.52v27.36l-17.07-.07V230.39l30.75,26.46V232.38h16.93v67.13l-30.61-30"/><path id="path51" class="cls-1" d="M97.46,264.58a33.26,33.26,0,0,1,55-25.23l-11,12.48a16.64,16.64,0,1,0,.17,25.35l11,12.51a33.3,33.3,0,0,1-55.12-25.11"/><path id="path53" class="cls-1" d="M232.11,311.93,200,226.62H173.15v70.75H155.58V226.62H116.69l9-17h86.82l19.56,51.13,19.59-51.13h84.06l9.27,17H264.24l-32.13,85.31"/><path id="path55" class="cls-1" d="M286.36,296.88v-14.3H298c1.89,0,5.5-.14,6.4-3.15,1.88-6.26-17.32-16.42-17.32-32,0-11.78,8.53-15.3,14.32-15.3h17.67v14.05H308.17s-3.13,0-4,1.25c-4.74,6.78,17.55,16.69,17.55,34.89,0,9.52-8.16,14.55-16.3,14.55H286.36"/><path id="path57" class="cls-1" d="M264.49,232.14h17v64.74h-17Z"/><path id="path59" class="cls-1" d="M324.49,232.14h17v64.74h-17Z"/><path id="path63" class="cls-1" d="M84.56,297.12l-4.51-12.05H59l-4.51,12.05H36.4l33.13-94.83,33.12,94.83H84.56M64.13,267.77h10l-5-16.56-5,16.56"/><path id="path65" class="cls-1" d="M344.57,264.56a33.34,33.34,0,1,1,33.35,33.35,33.34,33.34,0,0,1-33.35-33.35m16.79,0A16.55,16.55,0,1,0,377.92,248a16.56,16.56,0,0,0-16.56,16.54"/></g></svg>