<svg id="logo" xmlns="http://www.w3.org/2000/svg" viewBox="0 0 495.55 495.55"><defs><style>.cls-1{fill:#fefefe;}</style></defs><path id="path29" class="cls-1" d="M87.18,304.85c-34.15,0-57-24.22-57-53.57h0c0-29.35,22.88-53.83,56.93-53.75h321.8c34.05-.08,56.93,24.4,56.93,53.75h0c0,29.35-22.82,53.56-57,53.57Zm.11-94.12c-27,.05-43.64,18.12-43.64,40.48h0c0,22.36,16.49,40.58,43.64,40.49H408.77c27.15.09,43.65-18.13,43.65-40.49h0c0-22.35-16.6-40.42-43.64-40.48ZM426.07,229.6c2.46,0,3.68.83,3.68,2.48a2.3,2.3,0,0,1-1.88,2.29l1.92,3.84h-2.33l-1.65-3.52h-1v3.52h-2.1V229.6Zm-.19-3.37a7.78,7.78,0,1,0,7.77,7.78A7.78,7.78,0,0,0,425.88,226.23Zm6.28,7.78a6.29,6.29,0,1,1-6.28-6.28A6.28,6.28,0,0,1,432.16,234Zm-7.37-.59h1c1.2,0,1.78-.36,1.78-1.22s-.62-1.28-1.88-1.28h-.92ZM249.05,254.48c0-2.95,0-4.91,1-6.59a6.19,6.19,0,0,1,5.34-3.07h0a6.2,6.2,0,0,1,5.34,3.07c1,1.68,1,3.65,1,6.59Zm12.62,10.13s0,.15,0,2c0,6.15-4,7.51-6.28,7.51s-6.36-1.36-6.36-7.51c0-1.84,0-6.93,0-6.93s28.62,0,28.62,0c0-10.42-10.06-19-22.42-19s-22.37,8.45-22.37,18.87,10,18.86,22.37,18.86c10.25,0,18.91-5.85,21.56-13.78Zm47.81-23.4c5.68-.16,17.2,3.56,17.12,16.86,0,2.36,0,18.28,0,18.28H311.5V254.29c0-2.93-2.8-6.19-6.94-6.19s-7.21,3.26-7.21,6.19c0,1.43,0,22.06,0,22.06H282.28V242.76l15.08,0s0,2.71,0,3.54a18.32,18.32,0,0,1,12.11-5.07Zm-123.48,0c5.69-.16,17.21,3.56,17.13,16.86,0,2.36,0,18.28,0,18.28H188V254.29c0-2.93-2.8-6.19-6.94-6.19s-7.22,3.26-7.22,6.19c0,1.43,0,22.06,0,22.06H158.81V242.76l15.1,0s0,2.71,0,3.54a18.29,18.29,0,0,1,12.1-5.07Zm173.35-15.37h15v50.52h-15s0-1.63,0-1.94a18.25,18.25,0,0,1-17.48,1.26A17.91,17.91,0,0,1,331.45,259c0-8.86,8.36-18.55,19.31-17.59a20.22,20.22,0,0,1,8.6,3c0-7.78,0-18.59,0-18.59Zm.11,33.55v-6c0-5.2-3.59-6.52-5.95-6.52s-6,1.32-6,6.52c0,1.72,0,6,0,6s0,4.19,0,6c0,5.19,3.54,6.55,6,6.55s5.95-1.36,5.95-6.55v-6Zm48.14-.09s0,5.08,0,7.11c0,5.36-3.16,7.57-6.2,7.57s-6.23-2.21-6.23-7.57c0-2,0-7.24,0-7.24s0-5,0-7c0-5.33,3.18-7.52,6.21-7.52s6.2,2.19,6.2,7.52c0,2,0,5.81,0,7.15Zm-6.1-18.83c-12.27,0-22.21,8.45-22.21,18.87s9.95,18.86,22.21,18.86,22.2-8.44,22.2-18.86S413.76,240.47,401.5,240.47Zm-266.29-4.32V225.83h15.23v10.32Zm0,40.21v-33.6h15.2v33.59Zm76.23,0V242.83h-8.26v-5h8.27V231h15.2v6.8h8.23v5h-8.23v33.53Zm-138.06,0V225.84H89.16l21.78,35.23V225.84h15.62v50.52H111L89.06,241.13v35.23Z"/></svg>