<svg id="logo" xmlns="http://www.w3.org/2000/svg" viewBox="0 0 495.55 495.55"><defs><style>.cls-1{fill:#fefefe;}</style></defs><path class="cls-1" d="M131.11,297.73H106.85l-7.42-17.91H59l-6.76,17.91H28.36l36.46-90.42H90.94Zm-52.9-68.82L65,264.05H92.8Z"/><path class="cls-1" d="M219.25,207.31h19.62v90.42H216.33V241.25l-24.39,28.37h-3.45L164.1,241.25v56.48H141.56V207.31h19.62l29,33.54Z"/><path class="cls-1" d="M296,207.31c33,0,50,20.54,50,45.34,0,26-16.44,45.08-52.5,45.08H256.08V207.31Zm-17.37,73.85h14.71c22.67,0,29.44-15.39,29.44-28.65,0-15.51-8.36-28.63-29.7-28.63H278.62v57.28Z"/><polygon class="cls-1" points="390.81 228.75 362.39 200.32 465.86 200.32 465.86 303.79 437.44 275.37 437.44 228.75 390.81 228.75"/><polygon class="cls-1" points="390.78 234.44 361.52 263.7 361.52 304.66 402.47 304.66 431.73 275.4 390.78 275.4 390.78 234.44"/></svg>