<svg xmlns="http://www.w3.org/2000/svg" width="387.73" height="387.73" viewBox="0 0 387.73 387.73">
  <g id="logo-ea" transform="translate(-53.81 -57.91)">
    <path id="path7928" d="M247.68,57.91c-106.9,0-193.87,87-193.87,193.88s87,193.85,193.87,193.85,193.86-87,193.86-193.85S354.56,57.91,247.68,57.91Zm0,26.91a167,167,0,1,1-167,167,167,167,0,0,1,167-167Z" fill="#fefefe"/>
    <path id="path8072" d="M245.119,254.889H170.236L187.4,228.045h46.526l16.986-26.733H147.116l-16.908,26.733h24.91l-33.927,53.61H260.624l52.958-84.089,19.152,30.446H316.212l-16.886,26.877h50.416l16.953,26.766H398.81L313.582,146.73ZM180.9,147.691l-16.82,26.777H274.173l16.875-26.7Z" transform="translate(-12.326 27.581)" fill="#fefefe"/>
    <path id="path8076" d="M375.17,283v.86h2v4.24h1v-4.24h2V283Z" fill="#fefefe"/>
  </g>
</svg>
