<svg id="logo" xmlns="http://www.w3.org/2000/svg" viewBox="0 0 495.55 495.55"><defs><style>.cls-1{fill:#fefefe;}</style></defs><g id="layer1"><g id="g3069"><path id="path3021" class="cls-1" d="M75.48,336.67v40.85c0,16.58,11.31,27.15,27.77,27.15,17.32,0,27.92-11.15,27.92-28.27V336.67H116.51v39c0,9.34-4.7,15.13-13.1,15.13-9.21,0-13.27-6.66-13.27-14.38V336.67Z"/><path id="path3023" class="cls-1" d="M138.3,337.24V404h23.35c12.93,0,23.91-6.59,23.91-19.67a16.76,16.76,0,0,0-11.94-16.68s8.84-2.46,8.84-14.14-11.18-16.27-20.81-16.27Zm14.77,12.68h7.08c4.92,0,8.07,2.59,8.07,7.1,0,4-2.67,7.07-7.69,7.07h-7.46Zm0,24.62h7.83c7.36,0,9.92,3.78,9.92,8.3,0,5.25-3.3,8.33-9.17,8.33h-8.58Z"/><path id="path3025" class="cls-1" d="M191.11,337.23h14.74V404H191.11Z"/><path id="path3027" class="cls-1" d="M351.87,404H337.14V337.23h46.25V351H351.87v15.3h28.72v11.19H351.87Z"/><path id="path3029" class="cls-1" d="M388.8,337.23V351h19v53h14.92V351h18.65v-13.8Z"/><path id="path3031" class="cls-1" d="M222.66,381.8,211,390.36s4,14.79,24.32,14.79c13.5,0,23.44-7.88,23.44-21.73,0-22.33-31.22-17.59-31.22-29.07,0-3,2.69-5.69,7.65-5.69,7.95,0,11,7.8,11,7.8l11.71-8.21s-4.58-12.19-22.1-12.19c-14.41,0-22.06,9.24-22.06,18.77,0,22.75,30.31,17.81,30.31,29.75,0,4-3.18,7-8.12,7-9.8,0-13.21-9.74-13.21-9.74Z"/><path id="path3033" class="cls-1" d="M296.76,336c-17.35,0-25.08,9.41-25.08,9.41l2.24,2.24s-11.23,8-11.23,25.1c0,19.7,15.2,32.35,34.15,32.35,22,0,34.53-16.25,34.53-34.52C331.37,351.12,317.1,336,296.76,336Zm.32,13.85c11.76,0,19.39,9,19.39,20.67s-7.54,20.79-19.39,20.79-19.41-8.17-19.41-19c0-9.88,6.69-14.18,6.69-14.18l-2.42-2.43S287.09,349.88,297.08,349.88Z"/></g><path id="path3049" class="cls-1" d="M251.67,70.44c-75.66,0-108.33,67.35-108.33,67.35l9.62,6.88a121.44,121.44,0,0,0-11.77,52.52c0,60.24,48,117,118.55,117,64.13,0,117.11-52.2,117.11-116.84,0-84.31-65.38-126.9-125.18-126.9ZM252.33,91c59.12,0,105,47.64,105,103,0,58.72-44.16,99.55-95.62,99.55-37.87,0-72-28.84-72-68.38,0-22.84,12.14-38.76,25.74-47.25l2,2.16c-3.72,2.91-14.34,20-14.34,36.72,0,31.11,24.4,52.66,55.14,52.66,39.15,0,65.26-33.4,65.26-72.17,0-45.12-39.82-83.42-87.74-83.42-26.51,0-49,11.4-61.93,21.46l-2-1.82C188.7,107.45,218,91,252.33,91Zm-17.64,43.16c30.58,0,60.44,20.23,67.89,48.95l-2.71,1c-13.38-17.67-35.31-32.31-61.2-32.31-47.64,0-72.67,43.29-69,79.45l-2.81,1a68.65,68.65,0,0,1-5.26-25.38c0-39.87,32.74-72.76,73.08-72.76Zm20.21,50A26,26,0,0,1,281,209.85a26.48,26.48,0,0,1-7.4,18.37l8.77,6.13A32.61,32.61,0,0,1,255.89,248a32.06,32.06,0,0,1-32-32.12c0-19,16.33-31.68,31-31.68Z"/></g></svg>