<svg id="logo" xmlns="http://www.w3.org/2000/svg" xmlns:xlink="http://www.w3.org/1999/xlink" viewBox="0 0 495.55 495.55"><defs><style>.cls-1{fill-rule:evenodd;fill:url(#linear-gradient);}</style><linearGradient id="linear-gradient" x1="-409.6" y1="481.02" x2="-406.47" y2="479.62" gradientTransform="matrix(120, 0, 0, -80, 49212.86, 38682.34)" gradientUnits="userSpaceOnUse"><stop offset="0" stop-color="#ff4c1d"/><stop offset="1" stop-color="#9b0063"/></linearGradient></defs><g id="stadia-logo-mark"><path id="Fill-1" class="cls-1" d="M63.05,206.61a7.53,7.53,0,0,0-3.16,6.1h0v.1a7.41,7.41,0,0,0,.64,3h0l36,81.49a7.55,7.55,0,0,0,9.43,4.06h0c23.55-8.4,105.1-35,157.88-20.64h0s-52.94,3.06-100.81,40.6h0a7.53,7.53,0,0,0-2.22,9h0c3.89,8.78,11.69,26.43,16.11,36.41h0l6.2,14.54a4.72,4.72,0,0,0,8.27.74h0c11.17-16.82,30-25.22,48.09-32.56h0A276.79,276.79,0,0,1,297,332.92h0a250.13,250.13,0,0,1,63.73-2.63h0a7.52,7.52,0,0,0,7.88-5.24h0l16.25-51.93a7.48,7.48,0,0,0-2.76-8.31h0c-18.11-13.13-89.88-57.21-216.09-39.5h0s107.7-61.87,244.42,6.09h0A7.54,7.54,0,0,0,421,226.9h0l14.32-45.8a7.6,7.6,0,0,0,.35-2.14h0v-.22a7.51,7.51,0,0,0-3.81-6.42h0c-17.16-9.71-75.26-38.8-155.18-38.8h0c-61.26,0-135.32,17.08-213.63,73.09"/></g></svg>