<svg id="logo" xmlns="http://www.w3.org/2000/svg" viewBox="0 0 495.55 495.55"><defs><style>.cls-1{fill:#fefefe;}</style></defs><path class="cls-1" d="M405.68,320.27l-31.83-5.38.14-4.17,30.45-1.14-.77-8H364.53l-2,20,32.36,5.62.15,3.67-33.67,1.31-.83,8h47.12Zm-304-3-.49,7.21,11.59.38-.15,7.32-24.25-.71,1.05-21.14,33.35-.77-.48-8H79.22l-3.86,38.54h49.08l-1.27-23.25Zm207.75,14.16-.23-6.64,23-.27.21-7.24L308.93,317l-.24-6.72,30.89-.73.25-7.94H298.17l-1.25,38.54H340.6l-.3-8Z"/><polygon class="cls-1" points="275.79 340.16 271.93 301.62 260.84 301.62 244.91 319.99 228.97 301.62 217.88 301.62 214.02 340.16 227.05 340.16 228.3 315.16 244.91 332.2 261.51 315.16 262.76 340.16 275.79 340.16"/><polygon class="cls-1" points="221.04 160.5 194.97 160.5 192.59 279.68 224.1 279.68 221.04 160.5"/><path class="cls-1" d="M327,160.56H245.75l-3.16,119.12h90.22Zm-25.21,93.19-28.77.93-.95-70.08,30.08.91Z"/><polygon class="cls-1" points="424.25 186.58 421.35 160.5 341.25 160.5 341.93 183.74 367.55 184.62 370.17 279.68 401.74 279.68 392.3 185.48 424.25 186.58"/><path class="cls-1" d="M144,279.68h34.22l-22.3-53.49,17.79-9.72-12.16-56H74.18l-2.87,25.83,19.53-.65-9.42,94H112l.83-30,22-12Zm-29.35-94.8,25.12-.84,2.87,23.75-29,13.69Z"/><path class="cls-1" d="M182.4,340.16h13.19l-10.43-38.54H154.21l-10.44,38.54H157l2-9.72,21.42.27Zm-21.79-17.37,2.65-12.61,12.72-.57,2.66,12.65Z"/></svg>