<svg id="logo" xmlns="http://www.w3.org/2000/svg" viewBox="0 0 495.55 495.55"><defs><style>.cls-1{fill:#fff;}.cls-2{fill:#f25022;}.cls-3{fill:#7fba00;}.cls-4{fill:#00a4ef;}.cls-5{fill:#ffb900;}</style></defs><path class="cls-1" d="M181.58,253.54l-2.49,7h-.2a50.72,50.72,0,0,0-2.42-6.9l-13.31-33.47h-13v53.34h8.62V240.64c0-2.07,0-4.42-.07-7.32-.07-1.45-.2-2.55-.27-3.38h.2a32.44,32.44,0,0,0,1.25,4.56l16,38.91h6.07l15.87-39.26a41.73,41.73,0,0,0,1-4.21h.2c-.2,3.94-.34,7.45-.41,9.59v33.81h9.18V220.08H195.24Zm34.91-18.42h9v38.22h-9ZM221,219a5.34,5.34,0,0,0-3.79,1.52,4.89,4.89,0,0,0-1.59,3.73,4.81,4.81,0,0,0,1.59,3.65,5.28,5.28,0,0,0,3.79,1.45,5.51,5.51,0,0,0,3.8-1.45,4.84,4.84,0,0,0,1.58-3.65,5.14,5.14,0,0,0-1.58-3.73A5,5,0,0,0,221,219m36.22,15.8a25.31,25.31,0,0,0-5-.55,21.67,21.67,0,0,0-10.9,2.69,18,18,0,0,0-7.18,7.38,23.43,23.43,0,0,0-2.48,11,20.45,20.45,0,0,0,2.41,9.87,16.6,16.6,0,0,0,6.76,6.83,20,20,0,0,0,9.87,2.41,21.63,21.63,0,0,0,10.83-2.55l.07-.07v-8.28l-.35.28a15.4,15.4,0,0,1-4.34,2.27,13.13,13.13,0,0,1-4.28.83c-3.59,0-6.42-1-8.42-3.31s-3.1-5.24-3.1-9,1-7,3.17-9.31a11.07,11.07,0,0,1,8.42-3.45,14.68,14.68,0,0,1,8.55,2.9l.35.27v-8.76l-.07-.07a21.14,21.14,0,0,0-4.28-1.38m29.6-.27a9.49,9.49,0,0,0-6.07,2.13,13,13,0,0,0-3.45,5.18h-.07v-6.69h-9v38.22h9V253.81c0-3.31.69-6.07,2.21-8.07a6.91,6.91,0,0,1,5.79-3.1A21.48,21.48,0,0,1,288,243a7,7,0,0,1,2.14.9l.35.27v-9l-.21-.07a6.74,6.74,0,0,0-3.38-.62m24.42-.21c-6.27,0-11.31,1.86-14.83,5.52s-5.31,8.69-5.31,15c0,5.93,1.79,10.76,5.24,14.28s8.14,5.24,14,5.24c6.14,0,11-1.86,14.55-5.58s5.32-8.7,5.32-14.84-1.66-10.9-5-14.42-8-5.24-13.94-5.24m7.18,29.39c-1.66,2.14-4.28,3.17-7.52,3.17a9.42,9.42,0,0,1-7.73-3.31c-1.86-2.14-2.76-5.24-2.76-9.17s1-7.18,2.76-9.39a9.51,9.51,0,0,1,7.66-3.31,9.2,9.2,0,0,1,7.45,3.17c1.79,2.14,2.76,5.25,2.76,9.32s-.9,7.38-2.62,9.52M350.26,251a21.89,21.89,0,0,1-5.45-2.83,3.92,3.92,0,0,1-1-2.9,3.19,3.19,0,0,1,1.45-2.76,6.64,6.64,0,0,1,3.93-1,18,18,0,0,1,4.62.69,11.92,11.92,0,0,1,4,1.87l.35.27v-8.41l-.21-.07a24.45,24.45,0,0,0-4.07-1.18,28.21,28.21,0,0,0-4.41-.41c-4.28,0-7.8,1-10.56,3.31a10.21,10.21,0,0,0-4.07,8.42,11,11,0,0,0,.9,4.69,10.41,10.41,0,0,0,2.76,3.59,23.92,23.92,0,0,0,5.52,3.1c2.07.9,3.65,1.59,4.62,2.14a9.18,9.18,0,0,1,2.07,1.66,4,4,0,0,1,.55,2.14c0,2.55-1.93,3.79-5.86,3.79a15.51,15.51,0,0,1-5-.9,19.09,19.09,0,0,1-5-2.55l-.34-.28v8.77l.2.07a26.67,26.67,0,0,0,4.83,1.51,30.41,30.41,0,0,0,5.18.62c4.62,0,8.42-1,11.11-3.31a10.54,10.54,0,0,0,4.2-8.69,9.69,9.69,0,0,0-2.2-6.55,27.89,27.89,0,0,0-8.08-4.76m33.95-16.7c-6.28,0-11.32,1.86-14.83,5.52s-5.32,8.69-5.32,15c0,5.93,1.8,10.76,5.25,14.28s8.14,5.24,14,5.24c6.14,0,11-1.86,14.56-5.58s5.31-8.7,5.31-14.84-1.65-10.9-5-14.42-8-5.24-13.94-5.24m7.1,29.39c-1.65,2.14-4.27,3.17-7.52,3.17s-5.86-1-7.72-3.31-2.76-5.24-2.76-9.17,1-7.18,2.76-9.39a9.5,9.5,0,0,1,7.66-3.31,9.3,9.3,0,0,1,7.45,3.17c1.79,2.14,2.76,5.25,2.76,9.32s-.9,7.38-2.63,9.52m59.82-21.18v-7.38h-9V223.8l-.27.07-8.56,2.55-.2.07v8.63H419.53v-4.83a7.56,7.56,0,0,1,1.52-5,5.38,5.38,0,0,1,4.21-1.65,10.07,10.07,0,0,1,4,.89l.35.21v-7.8l-.21-.07a17.22,17.22,0,0,0-12.21,1,11.93,11.93,0,0,0-4.9,4.9,14.13,14.13,0,0,0-1.8,7.1v5.32h-6.27v7.31h6.27v30.91h9V242.5h13.53v19.66c0,8.07,3.79,12.14,11.38,12.14a23.24,23.24,0,0,0,3.79-.41,12.38,12.38,0,0,0,2.83-.9l.07-.07v-7.38l-.34.28a6.12,6.12,0,0,1-1.87.83,6.53,6.53,0,0,1-1.79.27,4.75,4.75,0,0,1-3.93-1.45c-.83-1-1.24-2.55-1.24-4.89V242.5Z"/><path class="cls-2" d="M34.49,202.28H76.78v42.29H34.49Z"/><path class="cls-3" d="M81.19,202.28h42.3v42.29H81.19Z"/><path class="cls-4" d="M34.49,249H76.78v42.3H34.49Z"/><path class="cls-5" d="M81.19,249h42.3v42.3H81.19Z"/></svg>