<svg id="logo" xmlns="http://www.w3.org/2000/svg" viewBox="0 0 495.55 495.55"><defs><style>.cls-1{fill:#fefefe;}</style></defs><polygon id="polygon8" class="cls-1" points="183.01 259.36 174.57 228.43 174.57 228.43 166.84 259.36 183.01 259.36"/><g id="g10"><path id="path12" class="cls-1" d="M79.1,216.08l14.1,55.3,13.8-55.3h15.2l-22.3,73.2H86.5l-21.8-73.2Zm85.3,0h19.7l20.8,73.3H190.1l-4.9-18.3H163.3s-3.8,14.7-4.6,18c-4.4.3-15.1,0-15.1,0l20.8-73Zm76,0h14.4V277h30.7v12.3H240.4Zm77.5,0,14.1,54.6,13.7-54.6h14.8l-22.2,73.3h-13l-22.2-73.3Zm103.6,0v9.5H401.8v10.6h18v9.5h-18v10.9h19.7v9.5H390.8v-50ZM32,314.68H468V190.38H32"/></g></svg>