<svg id="logo" xmlns="http://www.w3.org/2000/svg" viewBox="0 0 495.55 495.55"><defs><style>.cls-1{fill:#030000;}.cls-2{fill:#fefefe;}.cls-3{fill:#fcfcfc;}.cls-4{fill:#bdbcbc;}.cls-5{fill:#d4d3d3;}.cls-6{fill:#fdfdfd;}.cls-7{fill:#fafafa;}.cls-8{fill:#f8f8f8;}.cls-9{fill:#050202;}.cls-10{fill:#fbfbfb;}.cls-11{fill:#eee;}.cls-12{fill:#f3f3f3;}.cls-13{fill:#f0efef;}.cls-14{fill:#0f0e0e;}.cls-15{fill:#ebebeb;}.cls-16{fill:#100f0f;}.cls-17{fill:#f4f4f4;}.cls-18{fill:#e9e9e9;}.cls-19{fill:#ecebeb;}.cls-20{fill:#efefef;}.cls-21{fill:#e7e7e7;}.cls-22{fill:#ededed;}.cls-23{fill:#e2e2e2;}.cls-24{fill:#e4e4e4;}.cls-25{fill:#e8e8e8;}.cls-26{fill:#f5f5f5;}.cls-27{fill:#d6d5d5;}.cls-28{fill:#d1d0d0;}.cls-29{fill:#d8d8d8;}.cls-30{fill:#d9d9d9;}.cls-31{fill:#e0dfdf;}.cls-32{fill:#dbdbdb;}.cls-33{fill:#dad9d9;}.cls-34{fill:#d5d4d4;}.cls-35{fill:#e8e7e7;}.cls-36{fill:#eae9e9;}.cls-37{fill:#dfdede;}.cls-38{fill:#d3d2d2;}.cls-39{fill:#e0e0e0;}.cls-40{fill:#e5e5e5;}.cls-41{fill:#e1e0e0;}.cls-42{fill:#c4c4c4;}.cls-43{fill:#b8b7b7;}.cls-44{fill:#787777;}.cls-45{fill:#c2c1c1;}.cls-46{fill:#a7a6a6;}.cls-47{fill:#f0f0f0;}.cls-48{fill:#c8c8c8;}.cls-49{fill:#f6f6f6;}.cls-50{fill:#c0bfbf;}.cls-51{fill:#ccc;}.cls-52{fill:#999898;}.cls-53{fill:#0f0d0d;}.cls-54{fill:#8c8b8b;}.cls-55{fill:#c5c4c4;}.cls-56{fill:#bcbcbc;}.cls-57{fill:#8e8d8d;}.cls-58{fill:#d4d4d4;}.cls-59{fill:#cbcaca;}.cls-60{fill:#a6a6a6;}.cls-61{fill:#1e1c1c;}.cls-62{fill:#b2b1b1;}.cls-63{fill:#1a1818;}.cls-64{fill:#dbdada;}.cls-65{fill:#c9c9c9;}.cls-66{fill:#cbcbcb;}.cls-67{fill:#d0cfcf;}.cls-68{fill:#c4c3c3;}.cls-69{fill:#e3e3e3;}.cls-70{fill:#d6d6d6;}.cls-71{fill:#a09e9e;}.cls-72{fill:#f2f2f2;}.cls-73{fill:#777676;}.cls-74{fill:#e2e1e1;}.cls-75{fill:#c7c7c7;}.cls-76{fill:#d7d6d6;}.cls-77{fill:#e3e2e2;}.cls-78{fill:#b3b2b2;}.cls-79{fill:#dcdbdb;}.cls-80{fill:#d5d5d5;}.cls-81{fill:#bebdbd;}.cls-82{fill:#141313;}.cls-83{fill:#dfdfdf;}.cls-84{fill:#d9d8d8;}.cls-85{fill:#c8c7c7;}.cls-86{fill:#2b2a2a;}.cls-87{fill:#dcdcdc;}.cls-88{fill:#131111;}.cls-89{fill:#faf9f9;}.cls-90{fill:#f9f9f9;}.cls-91{fill:#c9c8c8;}.cls-92{fill:#9d9c9c;}.cls-93{fill:#cccbcb;}.cls-94{fill:#393636;}.cls-95{fill:#b8b8b8;}.cls-96{fill:#292626;}.cls-97{fill:#090909;}.cls-98{fill:#0a0a0a;}.cls-99{fill:#080808;}.cls-100{fill:#070707;}.cls-101{fill:#121212;}.cls-102{fill:#0f0f0f;}.cls-103{fill:#0e0e0e;}.cls-104{fill:#0b0b0b;}.cls-105{fill:#0c0c0c;}.cls-106{fill:#030303;}.cls-107{fill:#181818;}.cls-108{fill:#010101;}.cls-109{fill:#292929;}.cls-110{fill:#020202;}.cls-111{fill:#111;}.cls-112{fill:#d2d1d1;}.cls-113{fill:#cac9c9;}.cls-114{fill:#0d0b0b;}.cls-115{fill:#5a5858;}.cls-116{fill:#0a0707;}.cls-117{fill:#0c0b0b;}.cls-118{fill:#1a1919;}.cls-119{fill:#262525;}.cls-120{fill:#151414;}.cls-121{fill:#2a2828;}.cls-122{fill:#090707;}.cls-123{fill:#1d1c1c;}.cls-124{fill:#626161;}.cls-125{fill:#f7f7f7;}.cls-126{fill:#131313;}</style></defs><path class="cls-1" d="M238.79,80.83h8a10.18,10.18,0,0,0,7,0h3c5.2,1.29,10.61.48,15.82,1.6,20,3.92,38.45,11.24,54.82,23.58a116,116,0,0,1,29.3,32.84c3.18,5.23,2.73,6.39-2.68,9.15-1.63.84-3.36,1.4-5.05,2.07a30.47,30.47,0,0,0-3.87,2.09c3-2,7.08-3.11,10.81-4.93,2.87-1.4,5.17-.36,6.58,2.48a95.56,95.56,0,0,1,6.17,15.21c1,3.45.2,5.71-3.3,7.1q-7.17,2.83-14.27,5.79c4.53-1.74,9-3.6,13.56-5.33,4.09-1.55,5.72-.69,7.09,3.44,2.27,6.86,1.87,7.77-4.71,10.47-4.29,1.77-8.49,3.78-12.87,5.33-3.05,1.09-4.48,3-4.48,6.31,0,15.29-5,29.37-11.31,43a15.65,15.65,0,0,0-.62,13.25c4.88,12.87,9.42,25.88,14,38.87,2.36,6.7-3.82,19.87-10.36,22.39a5.65,5.65,0,0,1-7-2.11,1.52,1.52,0,0,1,.59-1.84c1.21-.79,2.61-.4,3.88-.57-3-.08-5.22-1.93-7.74-3.05a5.45,5.45,0,0,1-1.07-.76,15.07,15.07,0,0,0-3.83-3.33c-.72-.47-1.45-.91-2.18-1.36a19.46,19.46,0,0,0-5.86-2.86c-1.52-.72-3.08-1.63-3.27-3.38-.52-4.71-4.13-6.36-7.65-8.11-2.37-1.17-4.78-2.23-5.51-5.14-.28-2,.41-3.83,2.19-4.6,4.05-1.74,4.62-4.73,3.67-8.47-.13-.61.51-.19,0-.51-.29-.17-.27-.46-.18,0a14.29,14.29,0,0,1,.2,2.45,3.81,3.81,0,0,1-3,3.87c-2.91.25-2.27-2-2.55-3.61a15.52,15.52,0,0,0-1.73-4.57c-1.12-1.79-3.08-2.64-4.52-4.06-6.05-3-6.36-3.72-5.23-11.7-1.19,3.07.37,7.69-3.67,10.67,3,.88,5.87.06,8.55,1a26.78,26.78,0,0,1,4.48,3.6,15.63,15.63,0,0,1,2.14,5.37,22.82,22.82,0,0,0,.36,3.68,9.83,9.83,0,0,1-5.13,7.18,13.53,13.53,0,0,1-3.69,1,28.52,28.52,0,0,1-3.81.09,6.69,6.69,0,0,1-5.23-2.47c-1.15-.84-1.54-2.27-2.56-3.4a17.4,17.4,0,0,0,2.48,3.57c.52,4.44-3.93,10.16-9.16,11.76-1.06.33-2.23.21-3.36.59,6.09,10.51,5.21,16.36-3.36,23.57-5.39,2.84-10.75,3.09-16-.26-6.64-4.46-8.32-10.11-5.62-18.92,1.22-2.6,3.36-4.39,5.54-6.21-2.46,1-3.57,3.29-5.17,5.09-1.53,3.31-1.77,7-2.84,10.42-.81,2.62-1.14,5.64,3.06,6.41,1.92.35,3.1,2.38,4.92,3.2,2.88,2.47,6.36,2.4,9.82,2.27,3.83-.14,5.91,1.51,5.89,5.48a1.93,1.93,0,0,1-1,1.21,31.11,31.11,0,0,1-3.76,1.22C246.08,331.46,230.4,338,218,351.13c-7.86,8.29-12.52,18.27-15.92,29-2.11,6.64-2.52,6.94-9.45,7-5.48,0-11,0-16.44.08-6.34.28-12.71-.65-19,.66-10.06.86-20.13.34-30.19.31-1.63,0-3.43-.19-4.19-2s0-3.59,1.26-5c2.17-2.53,5-4.25,7.63-6.27,8-4.79,15.46-10.32,23.13-15.57a42.69,42.69,0,0,1,5.15-3.73c3.66-1.92,6.48-4.24,6-9-.23-2.3,1.16-4,3.22-5.08,1.55-.73,2.44-2.25,3.82-3.19,2.76-1.73,5.46-2.64,8.7-.78,3,1.69,5.22-.7,7.55-2.11,3.41-2.35,6.61-5,10.2-7.13,1.48-.79,2.59-2.11,4.08-2.88,2-1,4.11-1.65,6,.14,4.15,4,9.16,5,14.61,4.49.15.63-.18-.18.45,0,.48.1.49,0-.09,0-1.62.05-3.23,0-4.85,0a12.91,12.91,0,0,1-9.51-4.67c-2.52-2.86-1.91-4.33,2.91-6.07-3.44-.43-6.65.18-8.24-3-1.42-2.86-1.21-5.77-.54-8.73C206,300,210.54,295.1,218,293.37c7.27-1.69,13.34.84,18.15,6.46a10.66,10.66,0,0,0,1.62,1.86c-2.34-6.61-11.07-11.23-18.53-9.81a19.68,19.68,0,0,0-10.53,5.21c-2.67,2.68-5.48,3.49-9,2.32-3.07-1-6.7-.19-9.3-2.77a7,7,0,0,1-.68-2c-.28-.63-.16-1.94-.89-1.74s-.2,1.68-.8,2.42a3.45,3.45,0,0,1-2.65.66,3.61,3.61,0,0,1-1.29-.52,1.78,1.78,0,0,1-.47-1.24c.15-1.07.46-2.36-1-2.65-1.23-.25-1.25,1.09-1.64,1.87a8.89,8.89,0,0,0-.56,2.65c.12,2.71,2.24,3,4.19,3.35,4.24.66,8.44,1.56,12.66,2.33,4.92.91,5.85,2.05,5.57,7a28,28,0,0,0,2,11.13c.68,1.89,1.46,3.86-1,5.14a24.64,24.64,0,0,0-3.47,2.53,96.75,96.75,0,0,0-10.23,7.17c-3.41,2.56-6.81,4.37-11.1,1.57-1.7-1.11-3.4.39-4.92,1.3-1.62.45-2.5,1.82-3.64,2.87-2,1.51-4.7,2.3-5.06,5.35a21.28,21.28,0,0,1-.51,4.84c-2.06,4.62-7.29,5.49-10.44,8.82-5.46,3.95-11.24,7.44-16.64,11.47-2,1.5-3.74,2.12-5.39-.37-2.6-5-2.59-9.91-.7-15.3,5.58-15.93,11-32,15.7-48.16,4.48-15.3,1.21-24-11.74-33.4a54.36,54.36,0,0,0-28.6-10.19c-4-.29-6.68-1.78-7-6.11,4.48-4.13,10.5-5.3,15.68-8.08,2.89-1.55,6.12-2.47,9.05-4,2.14-.85,4.24-1.81,6.34-2.76,3.9-1.78,7.86-3.11,6.89-9-.49-3,3.23-3.18,4.8-4.4-3.37,1.19-7.3,2.16-5.89,7.76.53,2.12-1.19,3.24-2.86,4.13-3.5,1.87-7.27,3.12-10.78,5-1.38.41-2.93,1.61-4.09,0s0-3.19.81-4.59c14.66-24.13,30-47.79,48.2-69.45,13-15.43,27.09-29.61,44.83-39.65,13.62-7.71,28-13.17,43.87-12.91,20.32.32,37.59,8.45,52.59,21.81,1.49,1.32,2.79,2.84,4.26,4.18,1.16,1.05,2.46,2,3.95.73s.54-2.75-.35-3.93c-3.44-4.58-8-7.94-12.58-11.21a94.74,94.74,0,0,0-46.53-17.34c-5.56-.57-10.87.49-16.31.31a12.18,12.18,0,0,0-4.32.59c-22.36,3.46-42.4,12.81-61.6,24.28-5.63,3.36-6.22,3.21-9.56-2.57-4.15-7.18-8.06-14.49-12.12-21.71-1.35-2.41-3.32-5-.88-7.75s5.23-3.26,8.39-1c2,1.42,3.77.15,5.56-.73,5.49-2.72,10.9-5.6,16.55-8,3.63-1.55,6-1,7.4,2.87,1.87,5,4.73,9.48,6.8,14.37-2.12-5.15-4.93-10-7.12-15.08-1.18-2.76-1-4.84,2-6.06,13.53-5.53,27.28-10.28,42-11.44C236.34,81.77,237.77,82.07,238.79,80.83Z"/><path class="cls-2" d="M334.47,312.81c3.59,3.28,6.71,2.69,9.69-1a47.11,47.11,0,0,0,6.39-10.58,8.79,8.79,0,0,0,.16-7.14c-5.26-14.45-10.27-29-15.56-43.4a7.85,7.85,0,0,1,.37-7c7.79-15.18,13.17-31.07,12.9-48.4,0-2.27.91-3.19,2.83-3.93,5.55-2.15,10.92-4.8,16.58-6.59,3.83-1.21,4.06-3.29,3.32-6.49-1.49-6.43-1.44-6.45-7.8-4-4.17,1.62-8.29,3.38-12.52,4.81-1.07.36-2.83,2.5-3.64,0-.71-2.16,1.83-1.94,2.95-2.42,4.86-2.09,9.78-4.07,14.79-5.78,3-1,3.87-2.18,2.64-5.39-1.95-5.09-3.88-10.18-6.07-15.18-1.3-3-2.8-3.43-5.65-1.88a110.4,110.4,0,0,1-11.09,5c-1.56.65-3.12,2-5.82.24,4.12-1.91,7.83-3.78,11.64-5.4,8.48-3.58,8.53-3.55,3.61-11.18C336,108.94,309.81,92.36,277.5,84.78c-1.6-.37-3.21-.78-4.81-1.17-1.22-1.22-2.78-1.29-4.37-1.33-.87,0-2,.08-1.64-1.45q66,0,132-.09c3,0,3.57.6,3.57,3.57q-.15,161,0,321.89c0,3.67-1.41,3.54-4.09,3.54q-149.42-.09-298.83-.05V257.22a.88.88,0,0,1,1.35.16c1,3.69,3.2,4.85,7.16,5.06,15.85.83,28.82,7.6,38.64,20.21,4.22,5.43,5.67,11.32,4,18.13-4.15,16.66-10.24,32.71-15.45,49-2.2,6.9-5,13.51-1.69,20.76.68,1.47,1.05,2.93,0,4.37-1.48,2.78-4.43,3.77-6.78,5.45-2.07,1.48-3.69,3.42-3,5.66.61,2.05,3.14.79,4.76.79,9.54,0,19.09-.12,28.63-.22,6.23-1.15,12.53,1.19,18.76-.33a11.5,11.5,0,0,0,1.43-.36c5.45-.13,10.92-.57,16.35-.3,4.61.22,6.42-1.52,7.59-6,7.55-28.76,30.66-47.8,62.67-52.82a4,4,0,0,0,3-.78,1.72,1.72,0,0,1,.85-.34c3.4,0,7.09-1.28,9.77,2.11a17,17,0,0,1,1.81,4.61c2.83,8.55,10,14.53,18,15.11,11.06.81,18.56-3.09,23.09-12,4-7.92,2.49-18.4-3.58-25.07-1.61-1.77-4.06-3.14-3.53-6.17a4.22,4.22,0,0,1,3.2-1.75,6.15,6.15,0,0,1,4.56,2c1.68,1.74,3.29,3.6,6,3.74a8.69,8.69,0,0,1,4.84,1.92A7.93,7.93,0,0,1,334.47,312.81Z"/><path class="cls-2" d="M100.69,257.38l-1.35-.16q0-86.31-.08-172.63c0-3,.59-3.86,3.77-3.85q66.39.2,132.77.09a1.09,1.09,0,0,1,0,1.78c-14.33,1.92-28,6.1-41.44,11.4-2.46,1-3.46,1.61-2.24,4.81,2.45,6.46,6.35,12.18,8.88,18.56-2.69,1.58-3.2-.83-3.87-2.2-2.49-5.13-4.83-10.34-7.15-15.55-1-2.19-2-3.17-4.57-1.79-6.4,3.41-13,6.46-19.43,9.81-1.83.95-3.36,1.44-4.72-.43-2.53-3.5-4.88-1.07-7.11.27-3.36,2,0,3.78.69,5.19,4.28,8.2,9,16.17,13.28,24.37,1.64,3.13,2.72,3.83,6.08,1.68,17.92-11.48,37-20.28,58.06-24.43,1.78-.35,3.59-.48,5.39-.71,1.31-.76,2.95.39,4.2-.73q45.48-4.1,76.82,29.12c.94,1,4.34,2.19,1.51,4.45-2.12,1.69-4.05,3.73-7.29.29-15.94-16.93-35.45-26.46-59-25.9-15.58.37-29.58,6.33-42.79,14.23-19.69,11.79-34.79,28.47-48.78,46.27-16,20.34-30,42-43.21,64.3,1.58,1.43,2.63-.91,4-.45,1.09-.46,2.09-.72,2.17,1Z"/><path class="cls-3" d="M266.68,80.83c1.22,1.53,2.93.9,4.46,1,1.3,0,2.33.1,1.55,1.82-5.27-1.22-10.88-.5-16-2.78Z"/><path class="cls-4" d="M253.73,80.83a5.46,5.46,0,0,1-7,0Z"/><path class="cls-5" d="M235.76,82.61l0-1.78h3C239.08,83.63,237.05,82.49,235.76,82.61Z"/><path class="cls-1" d="M320.46,305.27l-4-2.24a3.22,3.22,0,0,0-2.69,1.05c-1.64,2.39,1,2.79,1.93,3.7,8.86,8.58,10.79,20.3,4.81,30.22-5.78,9.59-17.31,13.82-28.57,9.87-9.21-3.23-13.87-10.48-15.44-19.89-.6-1.62-1.88-2.15-3.48-2.28-5.45-.42-6.57-2.74-3.94-8.06,5.5-5,7.82-10.94,5.87-18.29a3.13,3.13,0,0,1,0-2.44c2.88-4,5.29-8.59,10.54-10.19,1.64,1.47,3.58.8,4.79.82,1.31-.19.46-1.11.71-.5.11.27,0,.41-.22.44a9.91,9.91,0,0,1-4.3-.18c-2.41-3.82.95-2.79,2.64-3.16,1.75,0,3.5.08,5-1.06l2.19-1c2.52.95,2.42,4.44,5.09,5.24,1,.76,2.21,1.37,3.29,2.1.92.78,2,1.3,2.95,2,0,0,.25.12.25.12a1.65,1.65,0,0,0-.19-.2c-.91-.66-1.9-1.12-2.75-1.82a21.31,21.31,0,0,1-3.32-2.41c-.88-1.62-1.66-3.23.76-4.25.81,2,2.46,3,4.28,3.86,4.27,2.08,9.4,3.29,9.21,9.76,0,.88,1.71,1.82,2.62,2.72,1.58,1.24,3.46,2,5.05,3.23.85.68,1.72,1.35,2.58,2,1.36,1.05,3.19,1.35,4.35,2.71l-.12-.11c1,1.22,3.12,1.39,3.32,3.4-.5,1.09-1.21,1.42-2.23.62l-5-2.07A21.5,21.5,0,0,1,320.46,305.27Z"/><path class="cls-2" d="M263.65,173.49l-6.91,3.13c-2.07,2.83-5.45,3.51-8.35,4.83-7.1,3.23-13.82,7.44-21.62,9l-1.91,1.15c-1.48,1.31-3,2.55-5.16,2.43-1.17.8-3.3,2.26-3.41.12-.3-6.2-5.45-8.79-8.6-12.76-5.45-6.87-5.79-6.9,1.86-11.29,4.59-2.63,8.54-6.58,14.47-6.77,2.29-.07,2.74-3.67,5.25-4.69,7.85-3.19,15.65-6.44,23.81-8.78a30.31,30.31,0,0,1,25.58,3.71c.24,1,0,1.42-1.06,1.06a7.36,7.36,0,0,0-6.93.07c-4.38-.17-8.71-1.95-12.68-.38,3.93.24,8.44-.74,12.68,1.19,3.38,3.67,9.21,3.7,12.16,8.19-.74,1.92-3.19,1.42-4.19,2.93s-2.8,1.07-4.07,1.89c-1.36,1.32-3.71.42-4.88,2.18C268.49,173.34,265.62,172.45,263.65,173.49Z"/><path class="cls-6" d="M186,224.32c-1.74,4.48-3.84,5.1-7.63.67-1.72-2-2.38-1.12-3.61-.68a22.85,22.85,0,0,0-4.95,2.25c-3,2-5.83,2-8.44-.51-3.89-3.79-7.24.37-10.91.74,2-4.42,7.51-6.28,11.4-3.93,6.72,4,17.08-.84,18.23-8.6a21.43,21.43,0,0,0,.57-3.92c-.52-13.24,7.92-20.68,17.53-27.4.95-.66,1.74-1.63,2.93-.34,4.27,4.61,8.61,9.16,12.8,13.85.52.58.26,1.85.36,2.8-1,.9-1,2.6-2.43,3.2-2.19-.3-3.68.38-4.41,2.68a17.89,17.89,0,0,1-2.27,4.94c-1.8,2.56-1.5,4.46,1,6.34,2.89,2.2,2.54,4.38.16,7.06-2.74,3.09-4,.38-5.37-1.05-4.35-4.61-9.89-2-14.88-2.73a2.08,2.08,0,0,1-.71-1.14,8.12,8.12,0,0,1,1-3.77,8.61,8.61,0,0,0-2.06,5.71,9.73,9.73,0,0,0,.88,2.93A4.35,4.35,0,0,0,186,224.32Z"/><path class="cls-6" d="M196.06,231.49c-.28,2.92-2.93,5-2.55,8.28.27,2.25,1,3.21,3.66,2.53a28.61,28.61,0,0,0-4.85,8,2.26,2.26,0,0,0,.92,3c1.69.87,1.59-.81,1.94-1.79.84-2.34,2.46-3.44,4.39-1.46,1.7,1.76,4.51.26,5.93,2.84s2.2,4-1.53,4.66c-1.93.33-4.34.46-4.38,3.6,1.64-.18,3.75-2.44,4.64-.42.57,1.3,0,3.84-1.4,5.43a7.94,7.94,0,0,1-1.15.91c-3.13-4.26-5.71,1.88-8.7.46a6.13,6.13,0,0,0-.92-.29l-1.06.88c-2,1.2-4,2.47-6.38.9-.59-.26-1.53-.71-1.8-.24-2.85,5-5,3.47-7.16-.56-.27-.52-1.06-.71-1.59-1.08-1.12-5.08.82-9.22,3.94-13,3.88-.23,3.88-.23,3.48,6.65.91-2.13,3.64-4.08,1.83-5.82-3.4-3.24-4.52-9-10.26-9.71.45-3.92,3.38-6.58,5-9.91.88-.38-.06-2.53,1.85-1.91,2.24,2.31,5,4.15,6.46,7.92-.2-6.45,6.71-6.59,8.64-11C196,230.17,196.53,230.35,196.06,231.49Z"/><path class="cls-7" d="M224.74,330.78c-5.3,1-10.41.28-14.48-3.22a6.53,6.53,0,0,0-7.27-1.38.79.79,0,0,1-.12-1.32c1.42-1.2,2.41-2.19,1-4.39a16.83,16.83,0,0,1-2.06-13.34c.75-2.88-.73-3.34-2.85-3.7-5.36-.92-10.68-2.13-16.08-2.72-3.89-.43-5.1-2-3.9-5.62,1.65-1.08,3.31-1.43,5,0a.57.57,0,0,0,.8.12c1.84,1.41,4.38-1.05,6.09,1.1,4,.83,8.09,1.56,12.07,2.56,2.13.53,2.92-.89,4.08-2,10.14-9.93,24.7-8.32,32.12,3.62.7,1.12,2.82,2.61.53,4.09-2.47,1.6-2.56-1.09-3.32-2.25-4.58-7-12.2-9.82-19.81-7.3a16.92,16.92,0,0,0-11.49,17.26c.38,5.44,3.16,7.59,8.32,5.84,1.31-.45,2.07-1.88,2.54.38.36,1.71-.79,2.35-2.38,2.28a11.84,11.84,0,0,1-2-.08,1.63,1.63,0,0,0-2,.89c-.75,1.24.18,1.8.82,2.46a17.71,17.71,0,0,0,9.42,5.16C221.22,330.4,223.87,327.92,224.74,330.78Z"/><path class="cls-3" d="M234.3,238c-.14,2.52-4.85,6.41-7.24,6.08-1-.13-.84-.8-.94-1.39-.41-2.35-1.83-3.62-4.16-3.23s-3,2.08-3.08,4.39c-.13,4.58-4.87,5.49-7.24,8.32-.78.92-2.53-.92-3.56-2s-.16-1.89.22-3.12c1.87-6.1,4.26-12.5-.69-18.39-1.5-1.79.34-2.24,1-3.14.95-1.31,1.42-.76,2.52.28,3,2.88,6,6,11,2.26a4.57,4.57,0,0,1,6.82,2.71c.82,2.48,1.16,5.3,4.59,5.73A1.07,1.07,0,0,1,234.3,238Z"/><path class="cls-3" d="M238.85,276.15a21.43,21.43,0,0,0,2.45-13.8,6.17,6.17,0,0,1,.9,1.42c3,9.61,11.14,10.37,19.17,11.37,3.88.49,5.91-3.32,9.28-4a.8.8,0,0,1,.33.8c-.07.29-.15.43-.24.43-1.84,3.21-2.14,6.88-3,10.37-.5,2.07-1.26,2.76-3.34,2.34a19.19,19.19,0,0,0-11.64,1.15c-2.72,1.18-3.51.56-3.26-2.4.22-2.62,0-5.48-3.64-5.66-3-.15-2.2,1.38-1.06,2.9.55.92,0,1.19-.78,1.39a6.74,6.74,0,0,1-2.94-1.72C239.08,279.83,239.52,277.72,238.85,276.15Z"/><path class="cls-8" d="M267.74,177.52l4.9-2.18c1.78-3.15,5.12-3,8-3.81l6.59-2.2c1-.38,1.37,0,1.29,1-2.47,1.27-4.9,2.62-7.41,3.81-5.1,2.41-5.17,2.93-.53,6.43.11,2.3-2.3,1.76-3.22,2.89a4.62,4.62,0,0,0-1.5,3.05c-.18,1.64-.6,3.4,1,4.57s3.14.25,4.52-.74a7.77,7.77,0,0,1,2.14-1.24,1.66,1.66,0,0,1,1.27.42l-1.23,2.94c-1.41,1.39,2.12,1.47.76,2.85-4,2.35-8.1,2.91-12-.21a9.51,9.51,0,0,1-3.25-10.67c1.09-3.86-1.25-3.65-3.63-3.09s-4.47,1.46-6.7,2.21c-.81.5-1.11,0-1.38-.67.08-.77.81-1,1.24-1.39,1.29.32,2.05-.65,3-1.22C263,177.69,265.77,178.54,267.74,177.52Z"/><path class="cls-9" d="M258.7,181.48l-1,1c-1.88,2.81-5.12,3.36-7.86,4.64-5.47,2.56-11.19,4.58-16.54,7.42-1.37.73-2.87,1.68-4.56.63-1.16-1.39,3.24-5.1-2-4.79,9.78-5.06,19.82-9.55,30-13.8.08.74,2,1.12.9,1.76C252.49,181.44,257.62,180.72,258.7,181.48Z"/><path class="cls-10" d="M183.48,302.81c4.14,0,8,3.24,7.21,7.54-.6,3.18-4.33,4.12-6.93,5.58-1.2.67-6.18-5.45-5.61-7.36C178.85,306.18,178.76,302.64,183.48,302.81Z"/><path class="cls-11" d="M289.58,285c-.49,1.37-4.59-2.16-2.91,2.15a.82.82,0,0,1-1.21.11,14.85,14.85,0,0,0-8.92,14.42c.53,6.48-.91,12.4-6.6,16.5-1.19.31-1.59-.19-1.36-1.34,8-8.74,8-11.56-.53-25.21,7.76,4.34,10.67-1.67,14.6-5.34,1.17-1.1,2-2.42.92-4.1a1.54,1.54,0,0,1,1.13-1.29c1.57.91,2.74,2.64,4.88,2.42A1,1,0,0,1,289.58,285Z"/><path class="cls-12" d="M211.88,202.45c.72-1.14,0-3.37,2.43-3.2,2,.38,3.56,1.2,3.49,3.61-.89,1.74.08,3.79-.88,5.52-1.38,2.81-.47,6.2-2.16,9C207.71,212.77,207.36,210.94,211.88,202.45Z"/><path class="cls-13" d="M190.93,267.2l1.13,0c.32,1.58.65,3.16,1,4.74a6.77,6.77,0,0,1,.69,2c.28,2.54-2.08,4.32-1.95,6.81.76,1,.61,2.34,1.19,3.41a2.09,2.09,0,0,1-.17,3.05c-.91.84-1.74-.11-2.59-.5s-1-1.78-2.25-1.15c-4.43,2.24-4.48,2.22-6.79-3,.54-3,3.71-.84,4.91-2.52C187.64,275.7,187.68,270.84,190.93,267.2Z"/><path class="cls-14" d="M241.77,280l2.26,2c2.52,1.87,1.52,4.16.76,6.43l-3,2.69c-1.85.7-3.41,0-4.9-1l-1.08,0c-1.95-2-1.66-4.62-1.77-7.11C235.5,279.15,238.4,279,241.77,280Z"/><path class="cls-15" d="M125.22,246.18l-2.17-1c2.18-1.1,4.3-2.38,6.57-3.28,4-1.57,7.51-3,5.92-8.63-1-3.63,2.85-3.39,4.83-4.28,1.81-.81,4.66-3.4,5.61-1.35,1.11,2.41-2.73,2.55-4.44,3.33-2.12,1-3.34,1.9-2.62,4.37,1.1,3.78-.71,5.72-4.17,6.91C131.5,243.35,128.39,244.85,125.22,246.18Z"/><path class="cls-16" d="M173.06,245.22c1.71-1.62,3.26-2.86,4.72.4a19.61,19.61,0,0,0,3.11,4.47c5.18,6.12,5.2,6.1-.18,13.14-.77-2.16-1.34-4.19-.26-6.44,1.27-2.63-.68-2.65-2.44-2.69l-2-1.68c.23-2.06,0-4-2-5.17A1.81,1.81,0,0,1,173.06,245.22Z"/><path class="cls-17" d="M248,298.49c-2.81,7.31-1.26,13.49,4.75,18.53,0,1-.1,1.81-1.41,1.16-2.37-.92-3.66-4.19-7.25-2.72-1.31.54-1.27-1.7-1.39-3-.48-5.63,1.83-10.52,3.9-15.48C247.78,296.81,248.28,297.28,248,298.49Z"/><path class="cls-18" d="M327.63,289.1c-1.78-3.13-1.77-6.06.88-8.08s5,.29,6.72,2.18c2.49,2.71,4.38,5.92,3.73,9.77-.15.88.13,3.16-1.84,2.85-1.37-.22-1.72-1.55-1.56-3.11a9.19,9.19,0,0,0-.67-4.3c-.85-2-2.15-4-4.58-4C327.53,284.45,329,287.51,327.63,289.1Z"/><path class="cls-19" d="M302.4,282.82c-1.77,1.51-.87,2.89.23,4.26a1.25,1.25,0,0,1-1.08,1c-4.87.7-3.6-3.92-5.23-6,3.41-.51,3.77-3.66,5.15-5.94.79-1,2.27,0,3.06-1,1.4-.94,2.41-2.1,2.2-3.94.59-.64-.14-2.42,1.7-2,1.09,4.36,2.09,8.66-4.15,10C302.36,279.64,302.48,281.33,302.4,282.82Z"/><path class="cls-15" d="M251.32,318.18l1.41-1.16a15.6,15.6,0,0,0,15.85-.23l1.36,1.34c-2.4,4.16-.92,7.15,3.62,7.06,2.07-.05,3.72,0,3,2.79-2.41-3.09-6.57.78-9-2.26-.6-4-2.63-5.23-6.74-4.52A10.71,10.71,0,0,1,251.32,318.18Z"/><path class="cls-20" d="M193,274.23l0-2.27,1.49,1.12c1.5-2.22,2.6-3.46,5.13-.53,1.9,2.19,1.08-2.78,3.63-1.74.64,2.71,3.69,6-1.44,8.31a.86.86,0,0,1-1,.27c-.59-.4-1.08-1-1.89-.95C194.51,280.12,194.24,279.93,193,274.23Z"/><path class="cls-11" d="M295.13,264.38l-11.5-.67c8.32-3.59,4.5-11.7,7-17.62,2,5.77-2.87,13.94,6,17.08C296.58,264.16,296.48,265,295.13,264.38Z"/><path class="cls-21" d="M228.77,195.21l29-12.69,1.11,1c-3.3,3.41-7.84,4.47-12,6.26-5.27,2.27-10.57,4.46-15.85,6.69-1.06.49-2,.77-2.12-.94Z"/><path class="cls-22" d="M241.77,280c-3-.32-5.7,0-7.17,3.14-.31.54-.25,1.25-.74,1.72-1.16-4.14-3.44-6.39-8-4.85a1.22,1.22,0,0,1-.54-.88,1.32,1.32,0,0,1,.55-.88,15.07,15.07,0,0,0,7.8-6.39c.71.14.79.82,1.09,1.3-1.27,2.21-.9,4.36,1.27,5.4,1.49.72,3.23,0,2.85-2.4Z"/><path class="cls-20" d="M170.05,341.8c-2.3,1.59-3.62,3.59-3,6.56s-.38,4.65-3.45,5.94-5.4,3.78-8.07,5.75c-1.2.32-1.66-.16-1.46-1.36,2.9-3.19,7.4-4.34,10-7.87a9.41,9.41,0,0,0,.14-6.24c1.07-2.64,3.73-3.38,5.79-4.84A1.39,1.39,0,0,1,170.05,341.8Z"/><path class="cls-23" d="M154,358.69l1.46,1.36L133.27,375c0-1.46,0-2.91,0-4.37,1.35,1.45,2.38.69,3.71-.25C142.65,366.37,148.36,362.56,154,358.69Z"/><path class="cls-14" d="M174.07,267.12c4.27-1.55,3.66,2.38,4.8,4.55,2.46-.93,1.13-7.94,6.32-4,.49,1.31-.36,2.26-.87,3.31-1.26,2.25-1.87,5.14-5.15,5.51a4.5,4.5,0,0,1-4-3.45c-.24-1.2.16-2.57-.94-3.54Z"/><path class="cls-16" d="M270.67,155.48c-5.52.2-11.06.78-16.48-.87,5.55-2.59,11.05-3.58,16.48.06A5.48,5.48,0,0,1,270.67,155.48Z"/><path class="cls-24" d="M193,284.13l-2-2.81c2-2.48,4.92-1.35,7.42-1.91a3.55,3.55,0,0,1,2.68,2.71c-.17,1.11-.28,2.24-.54,3.34-.22.91-.4,2-1.5,2.29s-1.45-.9-2.05-1.61C196,284.93,195.48,282.43,193,284.13Z"/><path class="cls-25" d="M179,276.28c2.86-.93,3-3.76,4.09-5.9,2-1.46,2.5.21,3,1.51a14.28,14.28,0,0,1,.41,7.17c-1.41,2.37-3.39,2-5.47,1.14-.91-.78-.45-2.46-1.89-2.89a.79.79,0,0,1-.26-.67Q178.9,276.28,179,276.28Z"/><path class="cls-18" d="M315.43,201.67A35.72,35.72,0,0,1,332,193.61C327.21,197.79,321.56,200.18,315.43,201.67Z"/><path class="cls-19" d="M173.06,337.21c1.62-1.75,3.8-3.31,5.9-2,4.27,2.65,7.58,1.06,10.95-1.45a1.4,1.4,0,0,1,.06,2.08c-3,2.79-6.26,4.63-10.19,2-2.82-1.86-4.29,1.74-6.66,1.29A1.26,1.26,0,0,1,173.06,337.21Z"/><path class="cls-26" d="M260,251.13c5,.13,9.11-1.24,10.62-6.66.78-2.82,2.5-.67,4.4-1.59-4.84,6.25-8.18,13.49-17.31,9.24C257.81,250.19,259,250.86,260,251.13Z"/><path class="cls-27" d="M334.92,179.72c4,4.38,3.11,9-2,10.62Z"/><path class="cls-28" d="M314.31,208.36c.43,3.42-.71,6.48-2.34,9.69.69-4.61-5.06-3-5.64-6.36l-.09.11c2.07-1.28,6.36,1.6,6.42-3.44A1.06,1.06,0,0,1,314.31,208.36Z"/><path class="cls-12" d="M179,276.28l.11,1c.37,2.32-1.11,2.84-2.93,2.88-2,0-2.37-1.55-2.38-3.05,0-2,.25-3.92.4-5.88,1.09-.6,1.31.32,1.67,1C175.93,274.35,178.25,274.7,179,276.28Z"/><path class="cls-29" d="M177.05,385.94c-6.61,3.76-13.45.79-20.19.69C163.56,385.61,170.31,385.77,177.05,385.94Z"/><path class="cls-30" d="M248,298.49l-1.4-1.51a14.58,14.58,0,0,1,6.61-6.38c.88-.47,1.86-1,2.46.24.48,1-.5,1.44-1.2,1.77C251.66,293.89,249.9,296.28,248,298.49Z"/><path class="cls-31" d="M276.63,182.41c.87-1.59,3.07-.33,4-1.85,2.53-1.2,4.66-2,4.36,2.39-.12,1.76,1.71,3.5.51,5.48-1.89.27-1.86-1.64-2.81-2.44C281.33,183.66,278.3,184.18,276.63,182.41Z"/><path class="cls-32" d="M230,245.6c-.54,5.4-3.65,4.57-6.58,4.14-.79-.12-2.13-.25-1.55-1.15C223.65,245.74,226.91,246.63,230,245.6Z"/><path class="cls-33" d="M248.77,231.19h-8.16c.32-1.94,1.69-3.95,0-5.77.1-.63.66-.7,1.11-.91,2.26,2,3.06,5.84,7.1,5.55.31.27.4.52.28.77S248.88,231.19,248.77,231.19Z"/><path class="cls-34" d="M179.21,288.14c-2.26-1.44-4.23-3-3.51-5.72.25-1,2.1-1.92,2.91-1.26C181.1,283.17,179,285.74,179.21,288.14Z"/><path class="cls-35" d="M317.11,162.41l-10.33-1.14C309.39,157.17,311.19,157.35,317.11,162.41Z"/><path class="cls-36" d="M225.84,278.24v.92c-1.51,1.13-3.45-.17-5,.9a10,10,0,0,1-8.13-5.44,1.29,1.29,0,0,1,.32-1.81C216.55,276.47,220.35,279.33,225.84,278.24Z"/><path class="cls-10" d="M208.77,96.5c1.84-2.93,5.46-2,7.94-3.66.81-.53,1.66.53,1.86,1.13.44,1.33-1.53.77-1.7,1.78-1.48,1.94-3.71,2.22-5.87,2.67a3.73,3.73,0,0,1-1.48-.15C208.83,97.87,208.32,97.38,208.77,96.5Z"/><path class="cls-36" d="M314.31,208.36h-1.65c-.55-.78-1.16-1.54-1.65-2.36-1-1.64.71-2.27,1.35-3.24.93-1.39,1.54.34,2.35.43,2,.24,1,1.6.76,2.52A17.18,17.18,0,0,1,314.31,208.36Z"/><path class="cls-37" d="M190,335.83l-.06-2.08a58.51,58.51,0,0,1,10-7,1.45,1.45,0,0,1,.08,2.13Z"/><path class="cls-38" d="M252.58,247.52c-2.31-1.92-.15-6.14-3.79-7.37.06-2,1.36-1.16,2.35-1,4.59.55,1,4.4,2.49,6.19C253,245.89,253.57,247.08,252.58,247.52Z"/><path class="cls-39" d="M208.77,96.5l1.2,1.3c.22,1.64-.87,1.82-2.08,1.86-1.95-.89-4.73,3.42-5.62-.11-.63-2.49,3.29-1.88,5.07-2.84A4.13,4.13,0,0,1,208.77,96.5Z"/><path class="cls-40" d="M333.37,310.32c-.83-1.26-3.11-1.21-3-3.32a3,3,0,0,1,3.18.43c2,1.83,4.18,2.93,7,1.65.34-.15,1.83-.65,1.45.84-.13.5-.92.82-1.4,1.22-1.48.68-3,.26-4.57.37A2.56,2.56,0,0,1,333.37,310.32Z"/><path class="cls-33" d="M179.08,348.75c1.56,1.22,3.28,2.55,3.7,4.76.1.54-.8,1.85-1.65,1.19-1.63-1.29-3.29-2.76-3.67-5C177.35,349.1,178.16,348.73,179.08,348.75Z"/><path class="cls-40" d="M180.07,293c0-1.51,0-3.11,2-3.18.89,0,2.54.6,2.55.95,0,1.14,2,2.85-.62,3.51C182.39,294.83,180.94,294.8,180.07,293Z"/><path class="cls-9" d="M280.67,171.53l-8,3.81c-.07-.71-2.27-1-.51-2C274.76,171.86,277.36,169.9,280.67,171.53Z"/><path class="cls-41" d="M162.88,337.51c2.38-1.79,4.6-3.88,9.06-4.69-3.27,3.17-5.54,5.39-8.82,6.25A1.19,1.19,0,0,1,162.88,337.51Z"/><path class="cls-42" d="M201.09,279.1a2.78,2.78,0,0,1,.76,0c1.09,2,6.3,1.69,2.8,6.46l-3-3.37C200.88,281.29,199.74,280.43,201.09,279.1Z"/><path class="cls-43" d="M264.73,234.14,257.1,233l.13-1.48a29.86,29.86,0,0,1,9.79,1.61C266.56,234.11,265.38,233.55,264.73,234.14Z"/><path class="cls-23" d="M290.53,233.6a5.82,5.82,0,0,1,2.89,3c.35.78,1.63,1.64.78,2.45-.58.56-1.85.56-2.81.54-1.42,0-1.18-1-1.06-2.06a10.71,10.71,0,0,0-.64-3.26A1.09,1.09,0,0,1,290.53,233.6Z"/><path class="cls-44" d="M215.68,308.53c.9-1.85.9-1.85,6.46-1.7-.68,2.23-3.35,1.65-4.54,3.19-.6.27-.94,0-1.22-.52C216.3,309.07,216.46,308.46,215.68,308.53Z"/><path class="cls-45" d="M223.72,199.44l1.09-2.08c1.19.74.41,2.1,1,3-.32,2.52-.56,5.06-1.93,7.3a.73.73,0,0,1-.94-.32l0-2.72C223.88,203,222.88,201.09,223.72,199.44Z"/><path class="cls-23" d="M188.07,295.06c-.78-1.64-2.56-3.9,0-4.79s2.44,2.05,2.92,3.75C190.23,295,189.56,296.17,188.07,295.06Z"/><path class="cls-17" d="M252.58,247.52c.23-.8.14-1.75,1-2.22.76,3.45,3.55,4.67,6.4,5.83a2.75,2.75,0,0,0-2.29,1C255.27,251.42,253.17,250.32,252.58,247.52Z"/><path class="cls-9" d="M263.65,173.49a17.4,17.4,0,0,1,6-2.82c.54.76,2.1,1.21.08,2.38A7.18,7.18,0,0,1,263.65,173.49Z"/><path class="cls-38" d="M284.7,280.85l-1.13,1.29c-1.84-1.8-3.71-3.59-2.41-7.56Z"/><path class="cls-9" d="M267.74,177.52c-1.72,1.59-4,1.82-6.07,2.74-.74-.75-2-1.21,0-2.33C263.75,176.7,265.66,176.91,267.74,177.52Z"/><path class="cls-46" d="M212.89,99.77c.49.94,2.82,1.81.2,2.88-1.64.68-3.25,1.8-5.19.95a.76.76,0,0,1-.33-.64c0-.25.05-.38.1-.38.59-.78,1.31-1.45,2-2.18a14.53,14.53,0,0,1,2.28-1.94,1.58,1.58,0,0,1,1.18.24A.78.78,0,0,1,212.89,99.77Z"/><path class="cls-47" d="M225.78,200.39c-1.33-.69-.62-2-1-3,1-1.39,2.87-.85,4.07-1.81l2.12.94C229.88,198.62,226.8,198.13,225.78,200.39Z"/><path class="cls-48" d="M323.46,303.07c-2.3-.47-4.21-1.45-4.95-3.91,2.93-1,4.29,1.47,6.18,2.77A1.43,1.43,0,0,1,323.46,303.07Z"/><path class="cls-49" d="M213.07,272.81l-.32,1.81c-2.9-2.7-2.64-6-1.78-9.4,3.07.8.49,3.52,1.68,5Z"/><path class="cls-50" d="M251.14,239.11l-2.35,1-8-1.19c-.18-1.56,1.38-.88,1.94-1.51C245.56,237.86,248.45,238,251.14,239.11Z"/><path class="cls-45" d="M295.49,239.14c2.86-1,5.42-.11,7.88,1.29A11.63,11.63,0,0,1,295.49,239.14Z"/><path class="cls-51" d="M330.49,307.11a6.57,6.57,0,0,1-5.08-1.95c-.52-1.13.09-1.71,1-2.11C328.07,304.13,330.64,304.27,330.49,307.11Z"/><path class="cls-52" d="M334.38,170.58c1.88,2.11,1.26,4.84,1.87,7.26-2.07-2.11-3.29-4.43-1.77-7.36Z"/><path class="cls-51" d="M162.88,337.51l.24,1.56c-1.41,1.89-3.29,2.82-6.46,3.17A15.12,15.12,0,0,1,162.88,337.51Z"/><path class="cls-9" d="M219.7,194a6.35,6.35,0,0,1,5.16-2.43C224.34,194.91,222.58,195.64,219.7,194Z"/><path class="cls-53" d="M181,280.2c1.7-.17,3.48,0,5-1.07,2.13,0,1.33,1.42,1.15,2.52-1.68,2.34-4.21-1.16-6,.86Z"/><path class="cls-54" d="M179.9,233.4l-1.85,1.91c0-2-.06-3.92-.05-5.89,0-.87-.58-2.3.95-2.18s.73,1.37.69,2.29A31.44,31.44,0,0,0,179.9,233.4Z"/><path class="cls-48" d="M244.79,288.46c-1.18-2,.91-4.46-.76-6.43l.79-1C246.88,283.54,247.81,286,244.79,288.46Z"/><path class="cls-33" d="M236.86,290.12a9,9,0,0,1,4.9,1l-3,3.78C238,293,237.43,291.56,236.86,290.12Z"/><path class="cls-55" d="M290.53,233.6l-.84.67c-.16,0-.36,0-.48,0-1.42-.95-3.18,1-4.44-.45-.41-.47,0-1.32.76-1.48C287.39,231.87,289.37,231.2,290.53,233.6Z"/><path class="cls-56" d="M308.43,269.21l-1.7,2c-.05-1.94-2.28-3.64-.59-6C307.93,266,308.23,267.6,308.43,269.21Z"/><path class="cls-39" d="M306.33,211.69c-2.68-3.2-2.51-3.95,2.38-6.66a11.8,11.8,0,0,0-2.46,6.76Z"/><path class="cls-57" d="M216.79,308.82l.81,1.2c-1,.91-1.78,2.61-3.51,1.5-.84-.53-2.16-1.48-.22-2.48a1,1,0,0,1,1.39,0c0-.35.11-.53.46-.54A4.92,4.92,0,0,1,216.79,308.82Z"/><path class="cls-58" d="M291.85,168.7c-.48-3.41,2.81-2.77,4.34-4,.05,0,.53.3.68.55.5.76,0,1.12-.64,1.4-1.5.63-3,1.29-4.47,1.95Z"/><path class="cls-59" d="M182,324.84a10,10,0,0,1,4-2.88,1.45,1.45,0,0,1,1.25,1.14A9.34,9.34,0,0,1,183,326C181.94,326.22,181.63,325.82,182,324.84Z"/><path class="cls-2" d="M241.73,224.51l-1.11.91-4.81-.2.09.09C237.27,220.9,239.62,223.58,241.73,224.51Z"/><path class="cls-60" d="M224.74,330.78c-1.36-1.39-3.65,0-4.93-1.63h8.49l.19.58Z"/><path class="cls-34" d="M332.59,148.27a10.49,10.49,0,0,1,2.76,4.42c.2,1-.2,1.35-1.17,1l-2.79-4.09A1.54,1.54,0,0,1,332.59,148.27Z"/><path class="cls-56" d="M334.18,153.7l1.17-1c1.46,1.18,2,2.72,2.25,4.93C335,157,334.54,155.41,334.18,153.7Z"/><path class="cls-61" d="M211.91,98.79c-.14,1.21-.67,2-2,1.93a1.29,1.29,0,0,1-1.05.55l-.59-.21-.29-.56a1.83,1.83,0,0,1-.05-.84L210,97.8a5.44,5.44,0,0,1,.8-.09C211.9,97.28,212.1,97.82,211.91,98.79Z"/><path class="cls-50" d="M334.48,170.48c-2.78-.59-2.45-2.79-3-5.43,2.92,1.48,2.52,3.7,2.92,5.53Z"/><path class="cls-26" d="M193.28,292.14c1.31.62,2.92.72,2.47,2.55-.13.51-1.06,1.3-1.26,1.21C193.13,295.26,192.94,294,193.28,292.14Z"/><path class="cls-62" d="M212.89,99.77a3.5,3.5,0,0,0,0-.79c.62-2.09,2.35-2,4-2C217.72,100,217.72,100,212.89,99.77Z"/><path class="cls-9" d="M274.57,168.49a7.49,7.49,0,0,1,4.07-1.89c1,1,2,2.11-.31,2.45C277.13,169.23,275.82,168.7,274.57,168.49Z"/><path class="cls-63" d="M216.91,97l-4,2-1-.19-1.14-1.08,6.1-2Z"/><path class="cls-64" d="M174,247.25c2.86.88,4.15,2.36,2,5.17C174.48,251,175.13,248.81,174,247.25Z"/><path class="cls-65" d="M264.73,234.14l2.29-1c1.67.15,3.43-.11,4.9,1-.14.66-.8.73-1.22,1.06Z"/><path class="cls-66" d="M228.73,306.91c1.33-1.76,2.25-3.32,4.45-2.79C232.21,306.64,232.21,306.64,228.73,306.91Z"/><path class="cls-67" d="M233.86,284.85a1.32,1.32,0,0,1,.74-1.72c-.76,2.51.86,4.63,1.18,7C232.85,289.18,232.56,287.3,233.86,284.85Z"/><path class="cls-68" d="M266.82,290.72c-.29,1.3-1.07,1.55-1.89,1.23s-1.7-.8-1.82-1.37a1.26,1.26,0,0,1,1.61-1.32A2.6,2.6,0,0,1,266.82,290.72Z"/><path class="cls-69" d="M295.13,264.38l1.45-1.21a8,8,0,0,1,3.87,4,.77.77,0,0,1-1.25.17Z"/><path class="cls-70" d="M212.65,270.18c-1.76-1.25-.05-3.67-1.68-5,.24-.55.35-1.41.75-1.59,1.28-.56,1.13.46,1.1,1.24C212.76,266.64,212.71,268.41,212.65,270.18Z"/><path class="cls-71" d="M202.09,241.77c1.43-.49,2.7-.86,3.7.49.13.17-.22.94-.53,1.12C203.55,244.4,202.73,243.45,202.09,241.77Z"/><path class="cls-72" d="M248.77,231.19l.06-1.13,6,.69C252.74,232.49,250.76,231.4,248.77,231.19Z"/><path class="cls-72" d="M270.7,235.17l1.22-1.06c1.66.13,3.44-.12,5,1.44C274.49,236.78,272.66,235.21,270.7,235.17Z"/><path class="cls-73" d="M235.81,225.22v4.83c-2.43-3.25-2.43-3.25.09-4.74Z"/><path class="cls-74" d="M173.06,337.21l.06,1.94c-.94,1-1.23,2.71-3.07,2.65l-.05-2.06C170.81,338.64,171.48,337.38,173.06,337.21Z"/><path class="cls-6" d="M234.73,273.15l-1.09-1.3.38-1.67c1-1.11-.89-3.45,1.64-3.94A6.9,6.9,0,0,1,234.73,273.15Z"/><path class="cls-75" d="M299.2,267.37l1.25-.17c1.46.95,1.77,2.44,1.9,4a1.8,1.8,0,0,1-.86,1.07C300.73,270.64,300,269,299.2,267.37Z"/><path class="cls-76" d="M235.66,266.24c-1.26,1-.09,3-1.64,3.94V264A2.39,2.39,0,0,1,235.66,266.24Z"/><path class="cls-9" d="M222.91,207.37l.94.32c-.1,1.06.34,2.27-.68,3.08-.15.12-1-.21-1.07-.49A2.24,2.24,0,0,1,222.91,207.37Z"/><path class="cls-62" d="M218.41,100.14c1.9-2.71,3.71-2.75,6.17-3.36C223.09,99.45,221.17,99.29,218.41,100.14Z"/><path class="cls-77" d="M289.58,285v-1.68l4.55-.19C293.68,286.29,291.35,284.94,289.58,285Z"/><path class="cls-27" d="M187.23,323.1,186,322a5.29,5.29,0,0,1,2.92-2c1.11-.34,1.38.16,1.13,1.16Z"/><path class="cls-28" d="M221.71,285.33c-.32.83-.88,1.44-1.8,1.32a1.44,1.44,0,0,1-1.3-1.76,1.4,1.4,0,0,1,1.71-1.31A1.65,1.65,0,0,1,221.71,285.33Z"/><path class="cls-2" d="M297.66,258.38c2.52-.63,3.34,1,5,1.92C299.94,260.69,299.94,260.69,297.66,258.38Z"/><path class="cls-78" d="M237.49,259.39c-.85-1.62-2.2-2.37-1.45-3.82a1.28,1.28,0,0,1,1.18-.09C238.19,256.44,238.41,257.6,237.49,259.39Z"/><path class="cls-79" d="M199.94,328.87l-.08-2.13c1-.63,2-1.26,3-1.88l.12,1.32C202.16,327.29,201.68,328.79,199.94,328.87Z"/><path class="cls-29" d="M182,324.84l1,1.13a4.52,4.52,0,0,1-3.86,2.09C179,325.72,180.66,325.45,182,324.84Z"/><path class="cls-2" d="M272.43,270.08c1.09-1.45,2.67-1.95,4.69-3-.48,2.53-1.94,2.75-3.23,3.17A.9.9,0,0,1,272.43,270.08Z"/><path class="cls-80" d="M190,321.12,188.9,320c1-.91,2.35-2.87,3.39-1.49C193.57,320.18,191,320.38,190,321.12Z"/><path class="cls-28" d="M282.68,264.17c-.74,2-1.78,3-4.38,2.75C279.39,264.93,280.57,264.17,282.68,264.17Z"/><path class="cls-81" d="M277.6,154.6l1.06-1.06a3.47,3.47,0,0,1,3,2.61A3.67,3.67,0,0,1,277.6,154.6Z"/><path class="cls-82" d="M188.07,295.06c1.41.89,1.94-.65,2.88-1l0,2.25c-2-.34-4.22.19-6.09-1.1Z"/><path class="cls-83" d="M196.06,231.49,195,230.33c.75-1.46,1.89-2.47,4.55-3.93Z"/><path class="cls-83" d="M326.46,303.05l-1,2.11-2-2.09,1.23-1.14Z"/><path class="cls-84" d="M301.49,272.28l.86-1.07c1.2,1-1.76,4.4,2.18,3.92-.66,1.44-1.94,1-3.06,1C301.48,274.85,301.48,273.57,301.49,272.28Z"/><path class="cls-85" d="M235.9,245.3c.44-1.1.87-2.19,1.55-3.92,1.49,2.41.6,3.71-.58,5C236.24,246.28,236.16,245.71,235.9,245.3Z"/><path class="cls-86" d="M201.09,279.1a4.07,4.07,0,0,0,.59,3.11l-.32.05-.29-.14-2.29-1.88c-.07-1.37,0-2.69,1.34-3.54Z"/><path class="cls-82" d="M180.07,293l4,1.28a6.77,6.77,0,0,1,0,.78l-5,0Z"/><path class="cls-18" d="M281.05,274.43c-.54-2-.29-3.3,1.18-4.29C282.83,271.69,282.48,272.94,281.05,274.43Z"/><path class="cls-2" d="M330.33,147.92l-3.05-4.42c2.29.21,3.34.9,3.3,2.83A1.22,1.22,0,0,1,330.33,147.92Z"/><path class="cls-87" d="M288.55,170.32l-1.29-1c1.39-1.2,2.82-2.14,4.59-.63a.87.87,0,0,1-.09-.11A4.48,4.48,0,0,1,288.55,170.32Z"/><path class="cls-84" d="M330.33,147.92l.25-1.59a2.19,2.19,0,0,1,2,1.94l-1.2,1.34Z"/><path class="cls-51" d="M186,218.37l.08,1.32c.7,1.55-.11,3.09-.06,4.63l-.49.1-.48-.06a7.55,7.55,0,0,1-.86-4.75C184.53,218.79,185,218.16,186,218.37Z"/><path class="cls-88" d="M164.21,344.58c.44,2.09,1.58,4.2-.14,6.24Z"/><path class="cls-16" d="M333.37,310.32l2,.73a.6.6,0,0,1,.31.85l-1.21.91-3-1.79Z"/><path class="cls-89" d="M235.78,248.24l-1.23,3.22c-1.55-1.47-.67-2.35.18-3.24A.65.65,0,0,1,235.78,248.24Z"/><path class="cls-9" d="M219.84,203.59c-.09.88-.07,2.5-.27,2.52-1.22.16-.54-.92-.65-1.48a3.29,3.29,0,0,1,.27-1.26Z"/><path class="cls-9" d="M221.11,206.49v-4.56C222.1,203.28,222,204.29,221.11,206.49Z"/><path class="cls-9" d="M223.72,199.44c-.08,1.76.29,3.59-.78,5.21C223,202.89,222.25,201,223.72,199.44Z"/><path class="cls-9" d="M216.92,208.38a10.49,10.49,0,0,1,.88-5.52C217.64,204.72,218.58,206.76,216.92,208.38Z"/><path class="cls-32" d="M283.66,185.46l1.82,3c.08.53,0,1-.63,1.08l-1,0C282.42,188.19,282.48,186.85,283.66,185.46Z"/><path class="cls-90" d="M220.88,280.06c1.43-1.51,3.3-.63,5-.9,0,.28,0,.56,0,.84A9.34,9.34,0,0,1,220.88,280.06Z"/><path class="cls-3" d="M235.78,248.24l-1.05,0,1.17-2.92,1,1.06Z"/><path class="cls-91" d="M241.81,112.86c-1.09,2-2.67,1.22-4.2.73A5.24,5.24,0,0,1,241.81,112.86Z"/><path class="cls-81" d="M335.68,311.9a3.6,3.6,0,0,0-.31-.85l5.22.09C339.09,312.31,337.37,312,335.68,311.9Z"/><path class="cls-24" d="M242.73,237.45,240.79,239c-.43.14-1,.51-1.27.36-.74-.44-.38-1.07,0-1.57C240.52,236.64,241.65,237.28,242.73,237.45Z"/><path class="cls-2" d="M272.43,270.08l1.46.18a5.63,5.63,0,0,1-3.15,2.1l-.09-1.23A1.8,1.8,0,0,1,272.43,270.08Z"/><path class="cls-92" d="M175.86,272.24l-1.67-1c0-.58,0-1.17,0-1.75C177,269.07,175.81,271,175.86,272.24Z"/><path class="cls-93" d="M266.7,326.06c-.8,1.09-1.47,2.7-3,.78C264.49,325.85,265.6,326,266.7,326.06Z"/><path class="cls-94" d="M284.38,195.3c.18-1.06-3.55-1.09-.76-2.85C283.82,193.42,287.59,193.43,284.38,195.3Z"/><path class="cls-95" d="M208,102.64c0,.32-.06.64-.08,1-.82.07-1.52.08-1.48-1.1a1.88,1.88,0,0,1,1.52-2l.14.23-.19.19a1.17,1.17,0,0,1,.58.83A1.31,1.31,0,0,1,208,102.64Z"/><path class="cls-2" d="M215.26,309h-1.39l.62-1.07Z"/><path class="cls-96" d="M216.79,308.81l-1.07-.32,0,0A.67.67,0,0,1,216.79,308.81Z"/><path class="cls-97" d="M265.6,384.85c-8.47,0-11.74-2.48-12-9.07-.23-7,2.88-10.42,9.92-10.77a39.21,39.21,0,0,1,4.47,0c6.84.41,9.83,3.65,9.71,10.45-.12,6.35-3.24,9.24-10.14,9.38C266.92,384.86,266.26,384.85,265.6,384.85Z"/><path class="cls-98" d="M240.51,374.39,252,384.06c-3.26.83-3.26.83-15.68-8.2-1.06,2.24-.33,4.52-.52,6.68-.1,1.17.1,2.31-1.69,2.34s-2.31-.6-2.28-2.3c.07-5.13,0-10.26,0-15.38,0-1.3.27-2.18,1.88-2.24,2-.08,2,1.11,2.07,2.53.11,1.74-.46,3.56.48,5.42,5.47-1.72,8.27-8.34,16-7.93Z"/><path class="cls-99" d="M311.51,384.64h-2c-1.1-5.57-.21-11.19-.48-16.77-.07-1.56.48-2.56,2.23-2.5,7.08.25,14.18-.58,21.24.44.85,1.09,3.39.4,3,2.82.54,4.73.88,9.47-.15,14.18-2.72-.44-1.63-2.65-1.89-4.19-.54-3.17,1-6.59-1.12-9.59a34.66,34.66,0,0,0-3.71-1c-2.67-.43-4.5,0-4.14,3.51a43,43,0,0,1,0,8.93c-.17,1.51,1.74,4.53-1.94,4.35-3.42-.17-1.6-3-1.81-4.63a29.33,29.33,0,0,1,0-7.43c.54-4-1.05-5.4-4.88-4.78a18.54,18.54,0,0,1-3,0c-1.79,3.36-.38,7-.82,10.43C311.73,380.44,312.49,382.61,311.51,384.64Z"/><path class="cls-99" d="M254.71,401.12c0-8.45,0-8.45,8.6-8.44,8.07,0,9.52,1.16,9.57,7.68.05,7.39-1.47,7.85-13.06,8.51C251.46,409.34,256,403.43,254.71,401.12Z"/><path class="cls-97" d="M356.48,366.78c2.74-.28,2.63,2.48,3.95,3.71a48.42,48.42,0,0,1-.11,14.12c-5,.06-9.94.27-14.9.15-2.79-.08-5.12-1.06-5.12-4.64,0-3.4.2-6.42,4.71-6.43,4-1.17,8.29.65,12.27-1a7.7,7.7,0,0,0-1.95-3.9C354.75,367.54,354.63,366.58,356.48,366.78Z"/><path class="cls-98" d="M400.46,394.32c-3.22,1.13-6.63.31-9.94.52-1.72.1-3.56,0-3.44,2.44.1,2,1.78,2.11,3.3,2.15,2.31.07,4.64,0,6.94.15,2.59.18,3.74,1.78,3.85,4.28s-1.17,4.38-3.55,4.6c-3.94.36-7.93.18-11.9.22-.9,0-1.69-.19-1.52-1.34s1-1.15,1.85-1.16c2.82,0,5.63,0,8.44,0,1.54,0,3.29-.18,3.36-2.1.09-2.29-1.79-2.35-3.52-2.33-2,0-4,0-6,0-3.08,0-4.68-1.76-4.66-4.57s1.35-4.62,4.62-4.5c4,.15,8.09,0,12.13,0Z"/><path class="cls-100" d="M241.73,392.68c7.5,0,10,1.92,10.05,7.75s-2.85,8.25-9.77,8.26-10-2.36-10.13-8S234.59,392.69,241.73,392.68Z"/><path class="cls-101" d="M292.82,401.06c0,7.67,0,7.67-7.79,7.66-8,0-12.49-7.35-9.1-15a1.72,1.72,0,0,1,1.95-1.07c1.34.07,1.5,1,1.5,2.08,0,2.65-.07,5.3,0,8,.17,5.09,4.14,2.92,6.68,3.39s4-.39,3.69-3.4a68.55,68.55,0,0,1,0-7.45c0-1.11-.26-2.46,1.49-2.56s1.56,1.3,1.58,2.4C292.84,397.09,292.82,399.07,292.82,401.06Z"/><path class="cls-102" d="M371.37,392.68c1.66,0,3.32,0,5,0,3,.09,4.56,1.81,4.7,4.68s0,6,.07,8.94c0,1.2.08,2.43-1.67,2.38s-1.4-1.48-1.43-2.54a43.24,43.24,0,0,1,0-5.46c.4-4.19-1.13-5.93-5.59-5.95-4,0-6.34.51-5.5,5.27a40.79,40.79,0,0,1,.06,6.45c0,1.26-.14,2.31-1.82,2.25s-1.65-1.23-1.65-2.4a76.11,76.11,0,0,0-.08-8.94c-.5-4.09,1.23-5.29,5-4.73a21,21,0,0,0,3,0Z"/><path class="cls-100" d="M213.88,408.51l-1,0a52,52,0,0,1,0-15.65c3.64-.07,7.29-.24,10.93-.17,4.47.09,7.37,3.92,4.81,7.2-2.88,3.69-1.76,5.72,1.26,8.3-2.06.67-3.72,1-4.59-.8-2.09-4.37-5.79-4.89-10-4.56C213.17,404.3,215.29,406.86,213.88,408.51Z"/><path class="cls-103" d="M313.56,393.57c-4,1.94-6.77,1.28-9.39,1.23-4.17-.09-5.1,2.66-5.14,5.75s1,5.89,5.17,5.62c2.13-.15,4.29,0,6.43,0a1.34,1.34,0,0,1,1.37,1.17c.22,1.16-.66,1.35-1.52,1.35-3.3,0-6.73.47-9.86-.29-4.58-1.11-5.12-5.22-4.72-9.17.37-3.72,1.86-6.79,6.43-6.55C305.57,392.84,308.87,392.19,313.56,393.57Z"/><path class="cls-104" d="M288.58,382c3.15-.53,4.34-2.35,4.1-5.54-.23-3,0-6-.05-8.93,0-1.45.11-2.59,2.08-2.54,1.64.05,1.87.94,1.86,2.22,0,4.14.12,8.28-.06,12.41-.18,4.42-3.74,4.59-6.94,5.09-2.28-1-4.79.2-7.07-.76C283.67,380.55,286.8,383.35,288.58,382Z"/><path class="cls-104" d="M304.53,375.35c0,2.3,0,4.6,0,6.91,0,1.29.24,2.62-1.86,2.64-1.89,0-2.12-.92-2.1-2.45.05-4.94,0-9.87,0-14.81,0-1.33-.13-2.62,1.89-2.69s2.06,1.08,2,2.5C304.52,370.08,304.53,372.71,304.53,375.35Z"/><path class="cls-105" d="M358.38,405.84c-2.78,2.89-9,3.9-13.05,2.2-4.45-1.89-4.23-5.65-4.18-9.56,0-2,1.31-2.67,2.37-3.74,1.08-.79,1.79-.33,2.34.68-.19,10.35.46,10.81,11.49,8C358.19,404,358.91,404.67,358.38,405.84Z"/><path class="cls-97" d="M207.94,400.74c-2.38,3.08-5.81,2.21-8.9,2.14-2.74-.06-4.56.31-4,3.67.14.91.26,2.06-1.25,2.13-.89,0-1.82-.12-1.71-1.16.53-4.87-1.4-9.89,1-14.63,1.07.5,2.49.51,2.85,2,.09,4,2.38,5,5.91,4.49a20.63,20.63,0,0,1,3.94-.36A2.46,2.46,0,0,1,207.94,400.74Z"/><path class="cls-106" d="M324.41,408.47l-1.89,0c-1.64-4.44.63-9.21-1.21-13.63-2.25-.27-4.72.72-8.14-1.62h19.19c-2,2.32-4.47,1.36-6.73,1.63C323.75,399.24,326,404,324.41,408.47Z"/><path class="cls-107" d="M335.05,400.31c0-2,0-4,0-5.94,0-.92.26-1.6,1.32-1.67s1.85.4,1.85,1.67q0,6.19,0,12.38c0,1.13-.3,1.95-1.62,2s-1.57-.87-1.56-1.95C335.06,404.61,335.05,402.46,335.05,400.31Z"/><path class="cls-108" d="M356.48,366.78a2.06,2.06,0,0,0-1.15,2c-3.83-1.44-7.83-.54-11.75-.85-1.1-.09-3,.76-2.9-1.5.06-1.69,1.57-1.56,2.63-1.36C347.68,365.84,352.52,363.06,356.48,366.78Z"/><path class="cls-104" d="M332.51,365.81c-5.8,0-11.62.28-17.41,0-4.23-.24-6.09.82-5.67,5.43.41,4.45.09,9,.09,13.44-2.23-6.1-.52-12.39-.85-18.58,0-.72.7-1.07,1.4-1C317.55,365.38,325.09,364,332.51,365.81Z"/><path class="cls-108" d="M358.38,405.84l-1.12-2.29a2,2,0,0,1-.34-1.25c.18-1.5.39-3-.83-4.23-3.06-3.21-7.08-1.46-10.63-2.07a2,2,0,0,0-1.94-1.26c5.05-4.05,13.51-2.52,15.85,2.86a9,9,0,0,1,.09,6.52C360,405.25,359.29,405.62,358.38,405.84Z"/><path class="cls-108" d="M195.09,395c-.7-.72-1.4-1.43-2.09-2.15,5,.16,10.39-1.78,14.88,2.18a7.69,7.69,0,0,1,.07,5.7v0l-2.45-1.16a6.6,6.6,0,0,0-6.76-3.58A4.91,4.91,0,0,1,195.09,395Z"/><path d="M332.33,369c2.66-.9,2,1.31,2,2.4.14,3.78.06,7.57.06,11.36.68.44,1.45.82,1,1.86-2.75.8-2.45-1.07-2.52-2.78C332.72,377.59,333.42,373.27,332.33,369Z"/><path d="M335.41,384.65l-1-1.86c2.14-4.59.39-9.46,1.07-14.16A22.45,22.45,0,0,1,335.41,384.65Z"/><path class="cls-104" d="M311.51,384.64c0-4.11-.06-8.21,0-12.32,0-1.54-.66-3.38,1.29-4.39-.11,4.46-.15,8.92-.39,13.36C312.37,382.4,313.41,384,311.51,384.64Z"/><path d="M212.89,392.88v15.65A24.45,24.45,0,0,1,212.89,392.88Z"/><path class="cls-7" d="M198.89,388.52H186.22v-.43h12.68Z"/><path class="cls-109" d="M324.41,408.47c.58-4.53-1.5-9.31,1.22-13.65C324.4,399.3,326.71,404.09,324.41,408.47Z"/><path class="cls-109" d="M321.31,394.81c2.78,4.33.68,9.1,1.21,13.63C320.46,404,322.7,399.27,321.31,394.81Z"/><path class="cls-98" d="M360.32,384.61q0-7.07.11-14.12C361.6,375.21,361.91,379.91,360.32,384.61Z"/><path class="cls-105" d="M357.28,372.66c-3.91,2.49-8.19.65-12.27,1C349,371.92,353.25,373.69,357.28,372.66Z"/><path class="cls-72" d="M320.46,305.27c2.14,1,4.49,1.68,6,3.68C323.39,309.49,321.79,307.61,320.46,305.27Z"/><path class="cls-110" d="M282.62,383.78c2.31.35,4.81-.82,6.95.88-2.42,0-4.85.27-7.26.12s-2.35-.3-.7-2.82C282.36,382.33,282.12,383.26,282.62,383.78Z"/><path class="cls-103" d="M282.62,383.78a1.89,1.89,0,0,1-1-1.82h7C287,383.78,284.16,381.71,282.62,383.78Z"/><path d="M359.46,404.12l-.09-6.52C361.86,399.74,361.19,401.92,359.46,404.12Z"/><path class="cls-111" d="M208,400.77c0-1.9,0-3.8-.07-5.7C209.57,397,209.33,398.86,208,400.77Z"/><path class="cls-103" d="M213.88,408.51c.48-1.89-1.18-4.33,1.46-5.66C214.09,404.54,216,407.06,213.88,408.51Z"/><path class="cls-72" d="M313.81,304.08c.66-.95.81-3.22,2.69-1.05C315.9,304.15,314.84,304.07,313.81,304.08Z"/><path class="cls-34" d="M282.5,302.19c-.09,2.62.95,5.44-1.72,8.66v-8.63C281.34,301.47,281.91,301.48,282.5,302.19Z"/><path class="cls-22" d="M281,329.94c.58-2.44-2-5.62,1.7-7.34.73,1.17.33,2.47.42,3.72C282.52,327.61,283,329.52,281,329.94Z"/><path class="cls-6" d="M281,329.94l1.49-2.95c1.15.86.34,2.32,1,3.32l-.94,3.22.05-.16Z"/><path class="cls-112" d="M282.6,333.37l-.05.16c2.55-1.45,2.27,1.18,3,2.19.34.5-.25,1.36-1,1.16C282.7,336.4,282.77,334.8,282.6,333.37Z"/><path class="cls-113" d="M282.61,322.72c-.67-2.08-1.31-4.15.93-5.9,1.46,1.75-.39,3.23-.08,4.77A1.64,1.64,0,0,1,282.61,322.72Z"/><path class="cls-114" d="M282.61,322.72l.85-1.13,0,8.72c-1.08-.88-.6-2.24-1-3.32l.21-4.39Z"/><path class="cls-2" d="M301.55,288.11l1.08-1,2.77,2.07a1.39,1.39,0,0,1-.84.88Z"/><path class="cls-2" d="M304.56,290l.84-.88,3,2a1.33,1.33,0,0,1-.82.86Z"/><path class="cls-43" d="M285.46,287.21l1.21-.11a9.57,9.57,0,0,1,6,.72C289.87,288.26,287.58,289,285.46,287.21Z"/><path class="cls-2" d="M307.55,292l.82-.86a5.62,5.62,0,0,1,3.11,2.47C309.49,294.43,308.6,293,307.55,292Z"/><path class="cls-115" d="M282.5,302.19l-1.72,0v-3.33C283,299.4,282.62,300.84,282.5,302.19Z"/><path class="cls-116" d="M279.08,307.24a4.74,4.74,0,0,1,.11-4.38A4.74,4.74,0,0,1,279.08,307.24Z"/><path class="cls-117" d="M236.79,162.53c-3.52,2.59-6.27,5.56-4.44,11-3.63-1.14-4.61-3.87-6-6-1-1.46.17-2.28,1.54-2.9,2.69-1.21,5.3-2.6,7.94-3.91C236.63,161.05,237.34,161.45,236.79,162.53Z"/><path class="cls-118" d="M235.87,176.27a7,7,0,0,1,3.41,4.43c.3,1-1.15,1.89-1.92,1.66-1.86-.54-2.67-2.37-3.29-4C233.67,177.28,234.78,176.69,235.87,176.27Z"/><path class="cls-119" d="M236.79,162.53l-1-1.81a4.36,4.36,0,0,1,4.9-.82C239.9,161.65,238.24,161.93,236.79,162.53Z"/><path class="cls-82" d="M206.43,196.3c-.17,1.76-.9,3-2.67,3.16a3,3,0,0,1-.69-6C205.12,193.27,206,194.57,206.43,196.3Z"/><path class="cls-120" d="M186,218.37l-1.1,1c-.77.46.09,2.29-1.64,1.93-1.57-4.18,2.15-6.44,3.5-9.55.3-.67,1.06-.59,1.69-.19s.57,1.14.29,1.7C187.88,215,186.93,216.66,186,218.37Z"/><path class="cls-121" d="M183.27,221.28l1.64-1.93.15,5C183.16,224.09,183.85,222.32,183.27,221.28Z"/><path class="cls-16" d="M187.12,281.65a2.91,2.91,0,0,0-1.15-2.52c-.89-2.94.21-6.54-2.89-8.75l2.11-2.7c1,1.23,1.84,3,3.29.43.56-1,1.48-1,2.45-.91Z"/><path class="cls-122" d="M283.66,185.46l.15,4c-2.06,3.56-4.85,4.94-8.54,2.45-2.2-1.47-1.37-6.66,1.36-9.52C279.57,182.07,282,182.79,283.66,185.46Z"/><path class="cls-123" d="M200.12,276.7c-.27,1.25.07,2.73-1.34,3.54L191,281.32c-.94-.37-2.89-1.36-1.42-1.81,3.09-1,1.63-4,3.44-5.28.14.08.33.12.41.24a4.73,4.73,0,0,0,6,1.74C199.5,276.15,199.86,276.53,200.12,276.7Z"/><path class="cls-124" d="M208,102.64a3.2,3.2,0,0,1-.07-.87,12.32,12.32,0,0,1,.94-1l1-.08C209.85,102,209.39,102.78,208,102.64Z"/><path class="cls-2" d="M208.85,100.8c.07.69-.33.93-.94,1,0-.28,0-.57,0-.85A1.24,1.24,0,0,1,208.85,100.8Z"/><path class="cls-6" d="M265.53,382c-5.93,0-7.92-1.74-7.93-6.86s2.27-7.25,8.25-7.2c5.59,0,8,2.13,8,7C273.94,380.1,271.72,382,265.53,382Z"/><path class="cls-10" d="M257.87,400.05c-1-4.21.63-5.59,5.11-5.35,4.23.23,6.88.83,6.92,5.92.06,5.86-3.67,5.23-7.58,5.67C256.69,406.93,257.71,403.38,257.87,400.05Z"/><path class="cls-10" d="M346.39,382c-2.5-.26-3.35-1.77-2.94-4.07s2.24-2,3.83-2.05a31.1,31.1,0,0,0,4.43-.06c4.92-.9,6.47,1.26,5.57,5.84C353.68,382.88,350,382.26,346.39,382Z"/><path class="cls-105" d="M346.39,382l10.89-.34C353.71,383.69,350.06,383.11,346.39,382Z"/><path class="cls-7" d="M242.09,394.8c4-.31,6.55,1.47,6.58,5.83s-3,5.85-6.84,5.94c-4.35.11-6.75-2.13-6.73-6S237.2,394.79,242.09,394.8Z"/><path class="cls-125" d="M215.14,394.83c2.61,0,5.22,0,7.83,0,2,0,3,.94,3,3s-1.12,2.91-3.09,2.88c-2.62,0-5.23,0-7.84-.06A5.58,5.58,0,0,1,215.14,394.83Z"/><path class="cls-103" d="M215.14,394.83l-.1,5.84C213.32,398.69,213.19,396.75,215.14,394.83Z"/><path class="cls-10" d="M345.46,396c4.36-2,8.45-2.22,11.93,1.73a7.73,7.73,0,0,1,.13,5,1.22,1.22,0,0,0-.26.84,16.85,16.85,0,0,1-3.5,2.44c-2.9,1.08-6,1-8.16-1.36C343.21,402,344,398.91,345.46,396Z"/><path class="cls-17" d="M195.09,395l6.35-.23c3.38-.13,4.85,1.36,4.05,4.77-2.7,2.22-6,1.4-8.81,1C193.44,400.12,195.63,396.94,195.09,395Z"/><path class="cls-126" d="M357.52,402.71c0-1.66-.09-3.32-.13-5A3.51,3.51,0,0,1,357.52,402.71Z"/></svg>