<svg id="logo" xmlns="http://www.w3.org/2000/svg" xmlns:xlink="http://www.w3.org/1999/xlink" viewBox="0 0 495.55 495.55"><defs><style>.cls-1{fill:url(#linear-gradient);}.cls-2{fill:url(#linear-gradient-2);}.cls-3{fill:url(#linear-gradient-3);}.cls-4{fill:#fff;}</style><linearGradient id="linear-gradient" x1="1303.94" y1="416.06" x2="1322.5" y2="416.06" gradientTransform="matrix(9.09, 0, 0, -9.09, -11841.91, 4027.32)" gradientUnits="userSpaceOnUse"><stop offset="0" stop-color="#e7380d"/><stop offset="0.02" stop-color="#e7380d"/><stop offset="0.08" stop-color="#e8410c"/><stop offset="0.17" stop-color="#ec590a"/><stop offset="0.28" stop-color="#f18107"/><stop offset="0.41" stop-color="#f9b703"/><stop offset="0.5" stop-color="#ffe100"/><stop offset="0.59" stop-color="#f9b703"/><stop offset="0.72" stop-color="#f18107"/><stop offset="0.83" stop-color="#ec590a"/><stop offset="0.92" stop-color="#e8410c"/><stop offset="0.98" stop-color="#e7380d"/><stop offset="1" stop-color="#e7380d"/></linearGradient><linearGradient id="linear-gradient-2" x1="1315.01" y1="419.11" x2="1310.05" y2="419.11" gradientTransform="matrix(9.09, 0, 0, -9.09, -11841.91, 4025.52)" gradientUnits="userSpaceOnUse"><stop offset="0.2" stop-color="#fd0"/><stop offset="0.28" stop-color="#fdca02"/><stop offset="0.45" stop-color="#f79a05"/><stop offset="0.68" stop-color="#ee4e0c"/><stop offset="0.9" stop-color="#e50012"/></linearGradient><linearGradient id="linear-gradient-3" x1="-4987.09" y1="7541.37" x2="-4992.05" y2="7541.37" gradientTransform="matrix(-9.09, 0, 0, 9.09, -45269.49, -68310.34)" xlink:href="#linear-gradient-2"/></defs><polygon class="cls-1" points="185.25 243.51 100.88 159.13 16.51 243.51 100.88 327.88 185.25 243.51"/><polygon class="cls-2" points="105.52 248.15 105.52 179.81 71.35 213.98 105.52 248.15"/><polygon class="cls-3" points="96.24 238.87 96.24 307.21 130.41 273.04 96.24 238.87"/><path id="path36447" class="cls-4" d="M234.41,192.24a19.28,19.28,0,0,0-3.07-.81,16.8,16.8,0,0,0-3.05-.28,11,11,0,0,0-1.91.18,5.56,5.56,0,0,0-1.65.63,3.14,3.14,0,0,0-1.12,1.14,3.19,3.19,0,0,0-.44,1.72,3.15,3.15,0,0,0,.31,1.44,3.38,3.38,0,0,0,1,1.21,9.29,9.29,0,0,0,1.75,1.12c.72.37,1.58.77,2.62,1.19a26.11,26.11,0,0,1,3.31,1.53,11.48,11.48,0,0,1,2.53,1.82,6.88,6.88,0,0,1,1.59,2.3,8.08,8.08,0,0,1,.53,3,7.74,7.74,0,0,1-.81,3.6,7.25,7.25,0,0,1-2.24,2.52,10.55,10.55,0,0,1-3.23,1.46,15.31,15.31,0,0,1-3.7.47,24.43,24.43,0,0,1-4.16-.38,20.25,20.25,0,0,1-4.31-1.21l1-3.81a17.35,17.35,0,0,0,3.88,1.25,18.35,18.35,0,0,0,3.54.4,7,7,0,0,0,4-1,3.39,3.39,0,0,0,1.47-3,3.28,3.28,0,0,0-.4-1.65,4.33,4.33,0,0,0-1.16-1.33,9.56,9.56,0,0,0-1.93-1.18c-.79-.4-1.68-.77-2.68-1.17a21.39,21.39,0,0,1-3.14-1.51,10.1,10.1,0,0,1-2.32-1.79,7.62,7.62,0,0,1-1.47-2.21,6.8,6.8,0,0,1-.51-2.72,7,7,0,0,1,.84-3.49,7.1,7.1,0,0,1,2.18-2.47,9.8,9.8,0,0,1,3.05-1.42,13.45,13.45,0,0,1,3.51-.44,25.07,25.07,0,0,1,3.82.28,17.89,17.89,0,0,1,3.37.81Z"/><path id="path36449" class="cls-4" d="M256.35,205.59a11.36,11.36,0,0,0-.35-3,6.85,6.85,0,0,0-1-2.38,4.92,4.92,0,0,0-1.74-1.53,5.73,5.73,0,0,0-2.54-.54,5.65,5.65,0,0,0-2.53.54,4.93,4.93,0,0,0-1.77,1.56,6.78,6.78,0,0,0-1,2.35,11.92,11.92,0,0,0-.35,3,9.27,9.27,0,0,0,1.42,5.4,5.39,5.39,0,0,0,8.52,0,9.51,9.51,0,0,0,1.39-5.43m4.52,0a13.25,13.25,0,0,1-.72,4.57,10.15,10.15,0,0,1-2,3.44,8.92,8.92,0,0,1-3.21,2.16,12.25,12.25,0,0,1-8.44,0,8.51,8.51,0,0,1-3.19-2.16,9.44,9.44,0,0,1-2.05-3.44,14.83,14.83,0,0,1,0-9.13,9.19,9.19,0,0,1,2.05-3.42,8.41,8.41,0,0,1,3.19-2.11,11.07,11.07,0,0,1,4.23-.77,11.65,11.65,0,0,1,4.21.74,8.83,8.83,0,0,1,3.21,2.12,9.87,9.87,0,0,1,2,3.44,13.31,13.31,0,0,1,.72,4.56"/><path id="path36451" class="cls-4" d="M269.49,195.22v2.91h.08a6.2,6.2,0,0,1,2.6-2.52,8.56,8.56,0,0,1,3.86-.88,7.5,7.5,0,0,1,5.52,2.05,7.4,7.4,0,0,1,2.07,5.53V216h-4.51V204a16.62,16.62,0,0,0-.19-2.46,4.7,4.7,0,0,0-.72-1.84,3.18,3.18,0,0,0-1.35-1.14,4.75,4.75,0,0,0-2.14-.4,5.2,5.2,0,0,0-1.86.35,4.61,4.61,0,0,0-1.63,1.1,6.15,6.15,0,0,0-1.16,1.95,8.3,8.3,0,0,0-.44,3V216H265.1V195.22Z"/><path id="path36453" class="cls-4" d="M296.88,210.55H297l5.57-15.36h4.74l-11.35,28.53h-4.75l3.37-8.12-8.21-20.41h4.93Z"/><path id="path36455" class="cls-4" d="M219.8,229.42h4.63V257.6H219.8Z"/><path id="path36457" class="cls-4" d="M234.74,236.75v2.93h.07a6.12,6.12,0,0,1,2.6-2.51,8.56,8.56,0,0,1,3.86-.89,7.58,7.58,0,0,1,5.54,2.05,7.47,7.47,0,0,1,2.05,5.54V257.6h-4.51v-12a16.65,16.65,0,0,0-.19-2.47,4.7,4.7,0,0,0-.72-1.84,3.25,3.25,0,0,0-1.35-1.14,4.68,4.68,0,0,0-2.14-.39,5.11,5.11,0,0,0-1.86.35,4.34,4.34,0,0,0-1.61,1.09,5.5,5.5,0,0,0-1.16,2,8.6,8.6,0,0,0-.46,3V257.6h-4.52V236.75Z"/><path id="path36459" class="cls-4" d="M252.25,236.75h3.49v-5.4h4.52v5.4h4.58v3.44h-4.58v10.89a9.46,9.46,0,0,0,.09,1.72,2,2,0,0,0,.35,1,1.33,1.33,0,0,0,.75.47,5.19,5.19,0,0,0,1.33.14c.36,0,.74,0,1.07,0s.65-.07,1-.12v3.35c-.44.05-1,.1-1.58.14a15.84,15.84,0,0,1-1.84.1,8.86,8.86,0,0,1-2.91-.4,3.68,3.68,0,0,1-1.72-1.16,4.2,4.2,0,0,1-.81-1.86,13.3,13.3,0,0,1-.21-2.49V240.19h-3.49Z"/><path id="path36461" class="cls-4" d="M277.57,239.52a5.07,5.07,0,0,0-3.84,1.56,7.15,7.15,0,0,0-1.72,4.09h10.42v-.09a5.83,5.83,0,0,0-1.28-4,4.48,4.48,0,0,0-3.58-1.53M272,248.47a6.36,6.36,0,0,0,2.18,4.57,7.59,7.59,0,0,0,5,1.6,18.4,18.4,0,0,0,2.73-.23,12.49,12.49,0,0,0,2.58-.65l.6,3.35a18.63,18.63,0,0,1-6.3.95,12.9,12.9,0,0,1-4.77-.81,10,10,0,0,1-3.54-2.24,9.57,9.57,0,0,1-2.16-3.44,12.45,12.45,0,0,1-.72-4.35,13.11,13.11,0,0,1,.7-4.38,9.4,9.4,0,0,1,2-3.46,8.65,8.65,0,0,1,3.14-2.28,11,11,0,0,1,8.07-.1,7.9,7.9,0,0,1,2.84,2.08,8.62,8.62,0,0,1,1.72,3.23,15.09,15.09,0,0,1,.56,4.23v1.93Z"/><path id="path36463" class="cls-4" d="M302,239.89a6.8,6.8,0,0,0-1.7-.16,4.57,4.57,0,0,0-1.88.32,4.12,4.12,0,0,0-1.68,1.17,5.79,5.79,0,0,0-1.07,2.14,11.48,11.48,0,0,0-.39,3.11V257.6h-4.51V236.77h4.39v2.75h.08c.95-2.17,2.76-3.24,5.46-3.24a6.37,6.37,0,0,1,.72,0,7.64,7.64,0,0,1,.8.07Z"/><path id="path36465" class="cls-4" d="M315.61,247.5c-1.07,0-2.07.05-3.05.14a9.38,9.38,0,0,0-2.58.63,4.67,4.67,0,0,0-1.75,1.21,3,3,0,0,0-.67,2,3.21,3.21,0,0,0,.88,2.37,3.49,3.49,0,0,0,2.61.91,5.8,5.8,0,0,0,2.44-.49,4.36,4.36,0,0,0,1.7-1.26,5,5,0,0,0,1-1.79,7,7,0,0,0,.3-2.12v-1.6Zm.86-3.47a4.15,4.15,0,0,0-1.19-3.21,5.33,5.33,0,0,0-3.67-1.09,13.37,13.37,0,0,0-2.56.28,15.81,15.81,0,0,0-2.79.86l-.91-3.35a15.29,15.29,0,0,1,3-.84,18.4,18.4,0,0,1,3.58-.4q4.47,0,6.77,2A7.2,7.2,0,0,1,321,244v8.82c0,.74,0,1.53.07,2.42a22.82,22.82,0,0,0,.31,2.33h-4a13.3,13.3,0,0,1-.25-1.35c-.1-.52-.14-1-.21-1.49h-.07a6,6,0,0,1-2.42,2.37,7.72,7.72,0,0,1-3.91.93,11.12,11.12,0,0,1-2.65-.33,6.87,6.87,0,0,1-2.31-1.11,5.89,5.89,0,0,1-1.67-2,6.44,6.44,0,0,1-.63-3,5.82,5.82,0,0,1,1.07-3.65,7,7,0,0,1,2.91-2.19,15.51,15.51,0,0,1,4.23-1,42.47,42.47,0,0,1,5.05-.28Z"/><path id="path36467" class="cls-4" d="M339.88,240.47a10.18,10.18,0,0,0-1.87-.58,10.39,10.39,0,0,0-1.86-.16,6.44,6.44,0,0,0-2.86.58,6,6,0,0,0-2.09,1.6,6.87,6.87,0,0,0-1.26,2.38,9.5,9.5,0,0,0-.44,2.93,9,9,0,0,0,.44,2.88,6.82,6.82,0,0,0,1.26,2.35,5.47,5.47,0,0,0,2.14,1.61,7,7,0,0,0,2.88.58,13.06,13.06,0,0,0,1.91-.16,7.35,7.35,0,0,0,1.86-.61l.75,3.4a13.09,13.09,0,0,1-2.38.63,17.57,17.57,0,0,1-2.42.16,12.72,12.72,0,0,1-4.77-.84,9.14,9.14,0,0,1-3.44-2.28,9.41,9.41,0,0,1-2.05-3.42,12.93,12.93,0,0,1-.69-4.3,12.61,12.61,0,0,1,.74-4.4,10.15,10.15,0,0,1,2.16-3.44,10.31,10.31,0,0,1,3.42-2.26,12,12,0,0,1,4.61-.84,14.14,14.14,0,0,1,4.82.75Z"/><path id="path36469" class="cls-4" d="M343.06,236.75h3.49v-5.4h4.52v5.4h4.58v3.44h-4.58v10.89a9.46,9.46,0,0,0,.09,1.72,2,2,0,0,0,.35,1,1.24,1.24,0,0,0,.75.47,5.16,5.16,0,0,0,1.32.14c.37,0,.75,0,1.07,0s.66-.07,1-.12v3.35c-.46.05-1,.1-1.58.14a16,16,0,0,1-1.84.1,8.81,8.81,0,0,1-2.91-.4,3.68,3.68,0,0,1-1.72-1.16,4.09,4.09,0,0,1-.81-1.86,12.44,12.44,0,0,1-.21-2.49V240.19h-3.49Z"/><path id="path36471" class="cls-4" d="M364.33,257.6h-4.52V236.77h4.52Zm.09-24.62h-4.63v-4.19h4.63Z"/><path id="path36473" class="cls-4" d="M378,253.62h.07l5.54-16.85h4.79l-7.81,20.83h-5.29l-7.74-20.83h4.91Z"/><path id="path36475" class="cls-4" d="M399.65,239.52a5,5,0,0,0-3.82,1.56,7,7,0,0,0-1.74,4.09h10.42v-.09a5.83,5.83,0,0,0-1.28-4,4.48,4.48,0,0,0-3.58-1.53m-5.56,8.95a6.44,6.44,0,0,0,2.18,4.57,7.59,7.59,0,0,0,5,1.6,18.27,18.27,0,0,0,2.72-.23,12.11,12.11,0,0,0,2.59-.65l.6,3.35a18.63,18.63,0,0,1-6.3.95,12.9,12.9,0,0,1-4.77-.81,9.93,9.93,0,0,1-3.54-2.24,9.57,9.57,0,0,1-2.16-3.44,12.45,12.45,0,0,1-.72-4.35,13.37,13.37,0,0,1,.69-4.38,9.69,9.69,0,0,1,2-3.46,8.78,8.78,0,0,1,3.15-2.28,11,11,0,0,1,8.07-.1,7.9,7.9,0,0,1,2.84,2.08,8.76,8.76,0,0,1,1.72,3.23,15.09,15.09,0,0,1,.56,4.23v1.93Z"/><path id="path36477" class="cls-4" d="M219.8,271h16.28v3.75H224.43v8.1h10.75v3.79H224.43v8.79h12v3.75H219.8Z"/><path id="path36479" class="cls-4" d="M245.69,278.33v2.9h.07a6.2,6.2,0,0,1,2.63-2.51,8.53,8.53,0,0,1,3.84-.88,7.08,7.08,0,0,1,7.61,7.58v13.73h-4.51v-12a13.39,13.39,0,0,0-.21-2.47,4.59,4.59,0,0,0-.72-1.83,3.06,3.06,0,0,0-1.33-1.14,4.81,4.81,0,0,0-2.14-.4,5.12,5.12,0,0,0-1.86.35,4.41,4.41,0,0,0-1.63,1.09,5.69,5.69,0,0,0-1.16,2,8.26,8.26,0,0,0-.47,2.95v11.52H241.3V278.33Z"/><path id="path36481" class="cls-4" d="M263.24,278.33h3.49V272.9h4.51v5.43h4.58v3.42h-4.58v10.88a12.36,12.36,0,0,0,.07,1.73,2.11,2.11,0,0,0,.35,1,1.32,1.32,0,0,0,.77.46,4.83,4.83,0,0,0,1.3.14c.4,0,.75,0,1.07,0s.68-.07,1-.11v3.35c-.44.05-1,.09-1.58.14a15.84,15.84,0,0,1-1.82.09,9.07,9.07,0,0,1-2.93-.4,3.6,3.6,0,0,1-1.72-1.16,4.09,4.09,0,0,1-.81-1.86,15.3,15.3,0,0,1-.19-2.49V281.74h-3.49Z"/><path id="path36483" class="cls-4" d="M288.53,281.07a5,5,0,0,0-3.82,1.56,6.89,6.89,0,0,0-1.72,4.09h10.4v-.09a5.82,5.82,0,0,0-1.28-4,4.46,4.46,0,0,0-3.58-1.54M283,290a6.22,6.22,0,0,0,2.19,4.56,7.52,7.52,0,0,0,5,1.6,19,19,0,0,0,2.72-.23,12.49,12.49,0,0,0,2.58-.65l.58,3.35a18.55,18.55,0,0,1-6.28.95,13.47,13.47,0,0,1-4.79-.81,9.74,9.74,0,0,1-3.51-2.23,9.59,9.59,0,0,1-2.17-3.45,12.41,12.41,0,0,1-.74-4.35,13,13,0,0,1,.7-4.37,10,10,0,0,1,2-3.47,9.23,9.23,0,0,1,3.14-2.28,10.33,10.33,0,0,1,4.14-.81,10.06,10.06,0,0,1,3.93.72,7.71,7.71,0,0,1,2.84,2.07,8.62,8.62,0,0,1,1.72,3.23,15.13,15.13,0,0,1,.59,4.24V290Z"/><path id="path36485" class="cls-4" d="M313,281.42a8.65,8.65,0,0,0-1.7-.14,4.59,4.59,0,0,0-1.88.33,4,4,0,0,0-1.68,1.16,5.87,5.87,0,0,0-1.07,2.14,11.51,11.51,0,0,0-.39,3.12v11.12h-4.52V278.33h4.4v2.74h.07c1-2.16,2.8-3.23,5.47-3.23.21,0,.44,0,.72,0a7.46,7.46,0,0,1,.79.07Z"/><path id="path36487" class="cls-4" d="M314.93,278.33h3.47V272.9h4.54v5.43h4.58v3.42h-4.58v10.88a12.36,12.36,0,0,0,.07,1.73,2.11,2.11,0,0,0,.35,1,1.33,1.33,0,0,0,.75.46,5.05,5.05,0,0,0,1.32.14c.39,0,.75,0,1.07,0s.68-.07,1-.11v3.35c-.44.05-1,.09-1.58.14a15.84,15.84,0,0,1-1.82.09,9,9,0,0,1-2.93-.4,3.56,3.56,0,0,1-1.72-1.16,4.45,4.45,0,0,1-.82-1.86,15.22,15.22,0,0,1-.2-2.49V281.74h-3.47Z"/><path id="path36489" class="cls-4" d="M342.6,289.05c-1.05,0-2.07.05-3.05.14a9.79,9.79,0,0,0-2.56.63,4.53,4.53,0,0,0-1.77,1.21,3,3,0,0,0-.65,2,3.2,3.2,0,0,0,.86,2.37,3.48,3.48,0,0,0,2.61.91,5.65,5.65,0,0,0,2.44-.49,4.43,4.43,0,0,0,1.7-1.25,5.08,5.08,0,0,0,1-1.8,7.32,7.32,0,0,0,.3-2.11v-1.61Zm.86-3.47a4.18,4.18,0,0,0-1.19-3.21,5.29,5.29,0,0,0-3.67-1.09,13.37,13.37,0,0,0-2.56.28,15.92,15.92,0,0,0-2.77.86l-.93-3.35a16.63,16.63,0,0,1,3-.84,18.77,18.77,0,0,1,3.56-.39q4.47,0,6.77,2a7.24,7.24,0,0,1,2.28,5.79v8.82c0,.75.06,1.54.1,2.42a16.54,16.54,0,0,0,.28,2.33h-4a10.18,10.18,0,0,1-.28-1.35c-.08-.51-.14-1-.19-1.49h-.09a6,6,0,0,1-2.42,2.37,7.6,7.6,0,0,1-3.91.93,11,11,0,0,1-2.63-.32,7,7,0,0,1-2.33-1.12,5.74,5.74,0,0,1-1.65-2,6.42,6.42,0,0,1-.63-3,5.85,5.85,0,0,1,1.07-3.66,6.7,6.7,0,0,1,2.91-2.18,15.36,15.36,0,0,1,4.21-1.05,42.59,42.59,0,0,1,5-.28Z"/><path id="path36491" class="cls-4" d="M358.07,299.15h-4.51V278.3h4.51Zm.1-24.62h-4.63v-4.18h4.63Z"/><path id="path36493" class="cls-4" d="M368.54,278.33v2.9h.07a6,6,0,0,1,2.61-2.51,8.47,8.47,0,0,1,3.84-.88,7.51,7.51,0,0,1,5.53,2,7.4,7.4,0,0,1,2.07,5.54v13.73h-4.51v-12a16.84,16.84,0,0,0-.18-2.47,4.6,4.6,0,0,0-.73-1.83,3.14,3.14,0,0,0-1.34-1.14,4.83,4.83,0,0,0-2.15-.4,5.28,5.28,0,0,0-1.86.35,4.31,4.31,0,0,0-1.6,1.09,5.74,5.74,0,0,0-1.19,2,8.53,8.53,0,0,0-.44,2.95v11.52h-4.51V278.33Z"/><path id="path36495" class="cls-4" d="M392.11,278.33v3h.09a5.7,5.7,0,0,1,2.49-2.56,7.71,7.71,0,0,1,3.66-.9c3.09,0,5.14,1.14,6.16,3.39h.12a6.78,6.78,0,0,1,2.83-2.63,8.24,8.24,0,0,1,3.7-.76,9,9,0,0,1,3.33.56,6,6,0,0,1,2.35,1.55,6.47,6.47,0,0,1,1.4,2.4,9.77,9.77,0,0,1,.44,3.07v13.73h-4.52v-12a23.26,23.26,0,0,0-.13-2.54,5.44,5.44,0,0,0-.63-1.72,2.76,2.76,0,0,0-1.28-1.18,4.29,4.29,0,0,0-2-.4,4.68,4.68,0,0,0-1.67.3,4.39,4.39,0,0,0-1.47.89,5.35,5.35,0,0,0-1,1.63,6.43,6.43,0,0,0-.39,2.35v12.7H401V286.89a22.41,22.41,0,0,0-.13-2.35,5,5,0,0,0-.61-1.79,2.77,2.77,0,0,0-1.26-1.1,4.77,4.77,0,0,0-2-.37,4.87,4.87,0,0,0-1.79.35,3.82,3.82,0,0,0-1.49,1.05,5.07,5.07,0,0,0-1.05,1.86,8.4,8.4,0,0,0-.41,2.84v11.77h-4.52V278.33Z"/><path id="path36497" class="cls-4" d="M432.66,281.07a5.11,5.11,0,0,0-3.84,1.56,7.21,7.21,0,0,0-1.72,4.09h10.42v-.09a5.82,5.82,0,0,0-1.28-4,4.46,4.46,0,0,0-3.58-1.54m-5.56,9a6.44,6.44,0,0,0,2.19,4.56,7.56,7.56,0,0,0,5,1.6A18.38,18.38,0,0,0,437,296a12.49,12.49,0,0,0,2.58-.65l.61,3.35a18.69,18.69,0,0,1-6.31.95,13.36,13.36,0,0,1-4.77-.81,10.09,10.09,0,0,1-3.53-2.23,9.59,9.59,0,0,1-2.17-3.45,12.41,12.41,0,0,1-.72-4.35,13,13,0,0,1,.7-4.37,9.67,9.67,0,0,1,2-3.47,8.86,8.86,0,0,1,3.14-2.28,10.36,10.36,0,0,1,4.14-.81,10,10,0,0,1,3.93.72,7.87,7.87,0,0,1,2.84,2.07,8.62,8.62,0,0,1,1.72,3.23,15.16,15.16,0,0,1,.56,4.24V290Z"/><path id="path36499" class="cls-4" d="M450.27,278.33v2.9h.08a6.18,6.18,0,0,1,2.6-2.51,8.49,8.49,0,0,1,3.86-.88,7.06,7.06,0,0,1,7.59,7.58v13.73h-4.51v-12a16.76,16.76,0,0,0-.19-2.47,4.59,4.59,0,0,0-.72-1.83,3.11,3.11,0,0,0-1.35-1.14,4.66,4.66,0,0,0-2.12-.4,5.35,5.35,0,0,0-1.88.35,4.51,4.51,0,0,0-1.61,1.09,5.4,5.4,0,0,0-1.16,2,8.49,8.49,0,0,0-.47,2.95v11.52h-4.51V278.33Z"/><g id="g36501"><path id="path36503" class="cls-4" d="M467.79,278.33h3.49V272.9h4.52v5.43h4.6v3.42h-4.6v10.88c0,.7.06,1.28.09,1.73a2,2,0,0,0,.36,1,1.31,1.31,0,0,0,.74.46,5.19,5.19,0,0,0,1.33.14c.37,0,.74,0,1.07,0s.65-.07,1-.11v3.35c-.44.05-1,.09-1.58.14a15.67,15.67,0,0,1-1.81.09A8.82,8.82,0,0,1,474,299a3.59,3.59,0,0,1-1.73-1.16,4.2,4.2,0,0,1-.81-1.86,13.23,13.23,0,0,1-.21-2.49V281.74H467.8Z"/></g></svg>