<svg xmlns="http://www.w3.org/2000/svg" width="30" height="32" viewBox="0 0 30 32"><path d="M10,10V8A6,6,0,1,1,22,8v2a1,1,0,0,0,1,1v2h2V11a2,2,0,0,0-1-1.73V8A8,8,0,1,0,8,8V9.27A2,2,0,0,0,7,11v2a2,2,0,0,0,1,1.75,8.07,8.07,0,0,0,4,6.16V22.3L4.7,25c-.91.23-4.7,1.37-4.7,4v2a1,1,0,0,0,1,1H15V30H2V29c0-.78,1.92-1.7,3.24-2h.11l8-3A1,1,0,0,0,14,23V20.31a1,1,0,0,0-.57-.9A6,6,0,0,1,10,14a1,1,0,0,0-1-1V11A1,1,0,0,0,10,10Z" fill="#fff"/><path d="M29,16H19a1,1,0,0,0-1,1V27a1,1,0,0,0,.63.93l5,2a1,1,0,0,0,.74,0l5-2A1,1,0,0,0,30,27V17A1,1,0,0,0,29,16ZM23,27.52l-3-1.2V20h3Zm5-1.2-3,1.2V20h3Z" fill="#fff"/></svg>